<svg width="23" height="23" viewBox="0 0 23 23" fill="none" xmlns="http://www.w3.org/2000/svg">
<path d="M10.8883 0.234987C10.9406 0.0783195 11.045 -1.33514e-05 11.2017 -1.33514e-05C11.3583 -1.33514e-05 11.4628 0.0783195 11.515 0.234987L12.5333 3.75999C12.9511 5.22221 13.7083 6.50165 14.805 7.59832C15.9017 8.69499 17.1811 9.45221 18.6433 9.86999L22.1683 10.8883C22.325 10.9405 22.4033 11.045 22.4033 11.2017C22.4033 11.3583 22.325 11.4628 22.1683 11.515L18.6433 12.5333C17.1811 12.9511 15.9017 13.7083 14.805 14.805C13.7083 15.9017 12.9511 17.1811 12.5333 18.6433L11.515 22.1683C11.4628 22.325 11.3583 22.4033 11.2017 22.4033C11.045 22.4033 10.9406 22.325 10.8883 22.1683L9.87 18.6433C9.45222 17.1811 8.695 15.9017 7.59833 14.805C6.50167 13.7083 5.22222 12.9511 3.76 12.5333L0.235 11.515C0.0783333 11.4628 0 11.3583 0 11.2017C0 11.045 0.0783333 10.9405 0.235 10.8883L3.76 9.86999C5.22222 9.45221 6.50167 8.69499 7.59833 7.59832C8.695 6.50165 9.45222 5.22221 9.87 3.75999L10.8883 0.234987Z" fill="url(#paint0_linear_292_379)"/>
<defs>
<linearGradient id="paint0_linear_292_379" x1="-6.51733" y1="11.2017" x2="25.2547" y2="11.2017" gradientUnits="userSpaceOnUse">
<stop stop-color="#F45B25"/>
<stop offset="1" stop-color="#FF843E"/>
</linearGradient>
</defs>
</svg>
