<svg width="15" height="15" viewBox="0 0 15 15" fill="none" xmlns="http://www.w3.org/2000/svg">
<path d="M13.2267 11.7954C13.2622 11.7954 13.5467 11.6177 14.08 11.2621C14.6133 10.9066 14.88 10.7288 14.88 10.7288L14.4 10.0888C14.1511 9.73323 13.9111 9.35989 13.68 8.96878C13.4489 8.57767 13.28 8.22212 13.1733 7.90212C12.8533 6.871 12.7644 5.85767 12.9067 4.86212C13.0489 3.86656 13.4222 2.95989 14.0267 2.14212L14.3467 1.71545L13.1733 0.542115L12.8 0.808783C11.52 1.69767 10.1511 2.09767 8.69333 2.00878C7.23556 1.91989 5.81333 1.32434 4.42667 0.222116C4.21333 0.0443382 4.09778 -0.0267735 4.08 0.00878239C4.06222 0.0443382 3.89333 0.319893 3.57333 0.835449C3.25333 1.351 3.09333 1.61767 3.09333 1.63545C3.09333 1.65323 3.21778 1.751 3.46667 1.92878C4.56889 2.67545 5.70667 3.16434 6.88 3.39545C8.05333 3.62656 9.13778 3.56434 10.1333 3.20878L10.56 3.04878L0 13.6621L1.22667 14.8354L11.7867 4.27545L11.6267 4.86212C11.3422 5.64434 11.2533 6.48878 11.36 7.39545C11.4667 8.30212 11.7511 9.21767 12.2133 10.1421C12.32 10.391 12.5067 10.7199 12.7733 11.1288C13.04 11.5377 13.1911 11.7599 13.2267 11.7954Z" fill="#B91E2C"/>
</svg>
