<svg width="258" height="259" viewBox="0 0 258 259" fill="none" xmlns="http://www.w3.org/2000/svg">
<path d="M172.11 94.2656H80.571V215.73H172.11V94.2656Z" fill="#EAAD8B"/>
<path d="M1.89866 54.6471L0 23.7684L25.6739 0L55.8004 8.1357L89.7411 42.1073L34.3103 93.3925L1.89866 54.6471Z" fill="#CE4622"/>
<path d="M72.1047 41.7713L35.8622 78.0626L13.8512 49.8734L12.5574 28.8113L29.0236 13.582L49.4552 19.0955L72.1047 41.7713Z" fill="#1F1D35"/>
<path d="M128.905 29.5347V100.033L109.028 107.076C108.625 108.438 108.121 108.404 107.516 107.076L103.332 106.874C93.8556 96.1332 84.0935 93.5278 74.0289 99.0581L71.0381 96.4358C70.2652 99.7976 68.2153 99.5119 65.4093 98.3689C53.6141 92.7378 28.6123 86.6023 28.6123 86.6023L77.1205 29.5515C93.822 29.6523 112.221 29.417 128.922 29.5515L128.905 29.5347Z" fill="#F45B25"/>
<path d="M71.0433 96.434C75.9159 95.7616 85.8125 107.814 82.4184 111.562L81.0574 116.269C81.091 122.354 68.8254 161.94 65.6665 168.949C64.944 170.546 63.3646 171.555 61.9196 172.446C60.6426 172.53 59.3657 172.547 58.1223 172.362C52.1575 171.471 25.9123 149.72 19.5274 143.786L16.335 137.482L28.6175 86.6006L71.0433 96.434Z" fill="#D64520"/>
<path d="M128.906 210.187L113.952 210.153C110.172 206.052 106.005 203.614 101.435 202.858L85.4725 185.158L63.0246 172.517C58.0511 172.013 60.6219 178.518 62.9742 182.048C82.028 204.824 128.906 259.001 128.906 259.001V210.203V210.187Z" fill="#8A231B"/>
<path d="M61.9196 172.446L128.91 258.997L22.3166 177.859L16.335 137.466C31.6587 149.064 45.9406 162.075 61.9196 172.429V172.446Z" fill="#A32B1E"/>
<path d="M85.9273 185.645L61.9167 172.45C65.294 151.791 76.2827 132.461 78.6351 111.634C81.3234 109.196 85.272 108.171 90.4975 108.541C96.916 105.969 108.56 107.23 109.03 107.079L85.9273 185.645Z" fill="#B23420"/>
<path d="M109.04 107.075L78.6447 111.631L71.05 96.4351L87.8187 92.5186L109.04 107.075Z" fill="#1F1D35"/>
<path d="M128.913 200.099C120.68 200.115 113.522 200.048 105.558 200.821C104.701 201.258 101.425 202.855 101.425 202.855C103.088 204.587 111.909 212.823 113.136 213.193H128.913V200.115V200.099Z" fill="#EE8C61"/>
<path d="M128.907 154.814L109.77 155.705L104.594 168.413C108.039 172.632 127.311 185.828 127.345 189.946C127.378 194.501 109.484 198.72 104.477 201.326L128.924 201.477V154.814H128.907Z" fill="#1F1D35"/>
<path d="M255.937 54.6471L257.836 23.7684L232.145 0L202.036 8.1357L168.095 42.1073L223.509 93.3925L255.937 54.6471Z" fill="#CE4622"/>
<path d="M185.719 41.7713L221.441 76.8019L243.973 49.8734L245.267 28.8113L228.8 13.582L208.369 19.0955L185.719 41.7713Z" fill="#1F1D35"/>
<path d="M128.898 29.5347V100.033L148.776 107.076C149.179 108.438 149.683 108.404 150.288 107.076L154.472 106.874C163.948 96.1332 173.71 93.5278 183.775 99.0581L186.766 96.4358C187.538 99.7976 189.588 99.5119 192.394 98.3689C204.19 92.7378 229.376 86.0476 229.376 86.0476L180.7 29.5515C163.998 29.6523 145.6 29.417 128.898 29.5515V29.5347Z" fill="#FF843E"/>
<path d="M186.799 96.437C181.926 95.7646 172.03 107.817 175.424 111.565L176.785 116.272C176.751 122.357 189.017 161.943 192.176 168.952C192.898 170.549 194.478 171.558 195.923 172.449C197.2 172.533 198.477 172.55 199.72 172.365C205.685 171.474 231.93 149.723 238.315 143.789L241.507 137.485L229.41 86.0488L186.799 96.437Z" fill="#D64520"/>
<path d="M128.898 210.187L143.852 210.153C147.633 206.052 151.8 203.614 156.37 202.858L172.332 185.158L194.78 172.517C199.754 172.013 197.183 178.518 194.831 182.048C175.777 204.824 128.898 259.001 128.898 259.001V210.203V210.187Z" fill="#8A231B"/>
<path d="M195.889 172.446L128.898 258.997L235.492 177.859L241.474 137.466C226.15 149.064 211.868 162.075 195.889 172.429V172.446Z" fill="#A32B1E"/>
<path d="M171.894 185.645L195.905 172.45C192.527 151.791 181.539 132.461 179.186 111.634C176.498 109.196 172.549 108.171 167.324 108.541C160.905 105.969 149.261 107.23 148.791 107.079L171.894 185.645Z" fill="#B23420"/>
<path d="M148.812 107.075L179.191 111.631L186.802 96.4351L170.017 92.5186L148.812 107.075Z" fill="#1F1D35"/>
<path d="M128.898 200.099C137.132 200.115 144.289 200.048 152.254 200.821C153.111 201.258 156.387 202.855 156.387 202.855C154.724 204.587 145.902 212.823 144.676 213.193H128.898V200.115V200.099Z" fill="#EE8C61"/>
<path d="M128.906 154.814L148.044 155.705L153.219 168.413C149.774 172.632 130.502 185.828 130.468 189.946C130.435 194.501 148.329 198.72 153.336 201.326L128.889 201.477V154.814H128.906Z" fill="#1F1D35"/>
</svg>
