<svg width="170" height="31" viewBox="0 0 170 31" fill="none" xmlns="http://www.w3.org/2000/svg">
<path d="M25.6087 6.71126C25.669 6.36847 25.6992 6.03664 25.6992 5.71305C25.6992 4.36383 25.1811 3.2861 24.1449 2.47986C23.1088 1.67362 21.634 1.27051 19.7207 1.27051H17.1056L16.1654 4.61064L18.5146 4.59419C19.4 4.59419 20.0743 4.78615 20.5375 5.16733C21.0008 5.55126 21.2311 6.09423 21.2311 6.79901C21.2311 7.04033 21.2201 7.22132 21.2009 7.34199C21.0611 8.18662 20.6664 8.84752 20.0222 9.32194C19.378 9.79636 18.5612 10.0322 17.5771 10.0322H9.46871L7.28125 22.3562H16.371C18.5255 22.3562 20.321 21.8324 21.7601 20.7848C23.1992 19.7372 24.0599 18.3579 24.3423 16.6467C24.4026 16.3039 24.4327 15.9912 24.4327 15.7115C24.4327 14.664 24.1367 13.759 23.5419 12.9939C22.947 12.2288 22.1685 11.7461 21.2009 11.5432C22.3495 11.1812 23.3198 10.5916 24.1148 9.77716C24.9097 8.96269 25.4086 7.93981 25.6087 6.71126ZM20.1428 16.1366C20.003 17.0416 19.6001 17.7491 18.934 18.2509C18.2706 18.7555 17.4236 19.005 16.3984 19.005H12.1413L13.1391 13.2051H17.3057C18.2103 13.2051 18.9202 13.4107 19.4356 13.8248C19.9482 14.2389 20.2059 14.8066 20.2059 15.5305C20.2059 15.6512 20.1867 15.8541 20.1456 16.1338L20.1428 16.1366Z" fill="white"/>
<path d="M17.0991 1.27148H6.6964L6.10156 4.62534L16.1671 4.61162L17.0991 1.27148Z" fill="#F45B25"/>
<path d="M4.34201 1.27148H0.592085L0 4.61162L3.70331 4.59791L4.34201 1.27148Z" fill="#F45B25"/>
<path d="M54.6854 6.80119C55.7133 7.74729 56.2259 9.08828 56.2259 10.8187C56.2259 11.4631 56.1766 12.0363 56.0752 12.5409L54.3235 22.3583H50.1268L51.7578 13.114C51.8181 12.752 51.8483 12.3983 51.8483 12.0555C51.8483 11.0874 51.5824 10.3497 51.0479 9.83419C50.5133 9.32138 49.754 9.0636 48.7672 9.0636C47.5995 9.0636 46.6126 9.41188 45.8067 10.1057C45.0008 10.7995 44.4992 11.8032 44.2964 13.1113V13.0811L42.6352 22.3556H38.4385L40.0695 13.1113C40.1298 12.7493 40.1599 12.4065 40.1599 12.0856C40.1599 11.0984 39.8886 10.3497 39.3458 9.83419C38.8031 9.32138 38.0383 9.0636 37.0514 9.0636C35.944 9.0636 34.9928 9.38994 34.1979 10.0454C33.403 10.7008 32.8849 11.6304 32.6436 12.8398L30.9523 22.3556H26.6953L29.6558 5.61925H33.9128L33.551 7.61291C34.2143 6.92734 35.0093 6.38436 35.9358 5.98124C36.8623 5.57812 37.8382 5.37793 38.8661 5.37793C40.1736 5.37793 41.292 5.6549 42.2186 6.20885C43.1451 6.7628 43.7975 7.55258 44.1812 8.58095C44.8857 7.61291 45.8067 6.83959 46.9443 6.25547C48.0819 5.67136 49.2634 5.38067 50.4914 5.38067C52.2622 5.38067 53.6629 5.85509 54.6881 6.80119H54.6854Z" fill="white"/>
<path d="M64.0984 5.62207L66.3325 17.3126L72.8235 5.62207H77.3218L62.6154 30.2727H58.1172L63.1911 21.9361L59.3562 5.62207H64.0957H64.0984Z" fill="white"/>
<path d="M83.4023 8.07129C84.0657 7.26505 84.9207 6.61201 85.9678 6.10742L85.9707 6.10449C87.0176 5.60006 88.155 5.35064 89.3828 5.35059C90.6109 5.35059 91.7328 5.61662 92.6895 6.15137C93.6459 6.68606 94.3857 7.45671 94.9092 8.46289C95.4327 9.46932 95.6934 10.6488 95.6934 11.998C95.6934 12.6233 95.6333 13.268 95.5127 13.9316C95.2112 15.6427 94.6047 17.1595 93.7002 18.4785C92.7957 19.7973 91.6964 20.8201 90.4082 21.5439C89.1199 22.2679 87.7712 22.6328 86.3623 22.6328C85.1154 22.6328 84.0575 22.386 83.1914 21.8926C82.3252 21.399 81.691 20.7599 81.2881 19.9756L80.8662 22.3613H76.6094L80.5645 0.00585938H84.8223L83.4023 8.07129ZM118.847 5.34766C120.094 5.34767 121.147 5.59974 122.002 6.10156C122.857 6.60614 123.488 7.23982 123.891 8.00488L124.312 5.61914H128.569L125.609 22.3555H121.352L121.805 19.9092C121.141 20.6935 120.28 21.3438 119.222 21.8594C118.164 22.372 117.013 22.6299 115.766 22.6299C114.519 22.6299 113.45 22.3527 112.504 21.7988C111.558 21.2449 110.823 20.4606 110.3 19.4434C109.776 18.426 109.516 17.2437 109.516 15.8945C109.516 15.272 109.576 14.6162 109.696 13.9307C109.998 12.2388 110.596 10.7387 111.492 9.43066L111.495 9.42773C112.391 8.1199 113.482 7.11093 114.771 6.40625C116.059 5.70148 117.419 5.34766 118.847 5.34766ZM166.047 22.3555H161.789L162.242 19.8789C161.579 20.7043 160.726 21.3712 159.689 21.873C158.653 22.3775 157.511 22.6269 156.264 22.627C155.016 22.627 153.944 22.3498 152.987 21.7959C152.031 21.242 151.286 20.4576 150.754 19.4404C150.219 18.423 149.953 17.2408 149.953 15.8916C149.953 15.2691 150.013 14.6133 150.134 13.9277C150.435 12.2359 151.036 10.7357 151.933 9.42773H151.93C152.826 8.11983 153.923 7.11097 155.222 6.40625C156.521 5.70148 157.883 5.34766 159.312 5.34766C160.4 5.34766 161.395 5.58332 162.302 6.05762C163.209 6.53203 163.881 7.16006 164.325 7.94434L165.745 0H170.002L166.047 22.3555ZM142.017 5.37988C143.746 5.37994 145.111 5.8491 146.106 6.78418C147.104 7.72204 147.603 9.0551 147.603 10.7881C147.603 11.4324 147.551 12.0164 147.452 12.54L145.7 22.3574H141.504L143.135 13.1133C143.195 12.7513 143.226 12.3975 143.226 12.0547C143.226 11.0484 142.959 10.2835 142.425 9.75977C141.89 9.23606 141.131 8.97468 140.145 8.97461C139.018 8.97461 138.056 9.31272 137.261 9.9873C136.466 10.6619 135.936 11.6327 135.676 12.9023L134.015 22.3574H129.758L132.716 5.62109H136.973L136.61 7.6748C137.296 6.97011 138.11 6.41133 139.056 6C140.001 5.58865 140.989 5.37988 142.017 5.37988ZM108.681 9.81934H107.562C106.316 9.81936 105.312 10.091 104.559 10.6338C103.805 11.1768 103.257 12.1041 102.914 13.4121L101.343 22.3545H97.0859L100.044 5.61816H104.301L103.788 8.58008C104.512 7.5738 105.359 6.78676 106.323 6.22461C107.291 5.65973 108.336 5.37992 109.465 5.37988L108.681 9.81934ZM87.6318 9.06934C86.8671 9.06934 86.11 9.26703 85.3672 9.65918C84.6217 10.0513 83.9772 10.6212 83.4346 11.3643C82.8919 12.1101 82.5276 12.985 82.3467 13.9912C82.2672 14.5149 82.2256 14.8993 82.2256 15.1406C82.2256 16.328 82.5741 17.2553 83.2676 17.9189C83.9611 18.5825 84.8329 18.917 85.8799 18.917C86.6639 18.917 87.4292 18.7166 88.1748 18.3135C88.9201 17.9105 89.5639 17.3373 90.1064 16.5918C90.6492 15.8459 91.0144 14.9592 91.1953 13.9336C91.2555 13.5308 91.2851 13.1691 91.2852 12.8457L91.2832 12.8428C91.2832 11.6554 90.9404 10.7281 90.2578 10.0645C89.5726 9.40087 88.698 9.06938 87.6318 9.06934ZM119.302 9.06934C118.518 9.06934 117.755 9.2614 117.021 9.64258C116.286 10.0265 115.647 10.5826 115.104 11.3174C114.562 12.0522 114.198 12.9244 114.017 13.9307C113.956 14.3145 113.926 14.6768 113.926 15.0195C113.926 16.2289 114.269 17.1812 114.954 17.875C115.639 18.5686 116.503 18.917 117.55 18.917C118.334 18.917 119.099 18.7193 119.845 18.3271C120.587 17.935 121.229 17.3642 121.761 16.6211C122.292 15.878 122.651 15.0004 122.832 13.9941C122.912 13.4704 122.953 13.0861 122.953 12.8447L122.955 12.8428C122.955 11.6554 122.608 10.7281 121.914 10.0645C121.221 9.40085 120.349 9.06937 119.302 9.06934ZM159.736 9.06836C158.953 9.06836 158.191 9.26057 157.456 9.6416C156.721 10.0255 156.083 10.5825 155.537 11.3174C154.994 12.0523 154.629 12.9243 154.451 13.9307C154.391 14.3145 154.361 14.6768 154.361 15.0195C154.361 16.2287 154.703 17.1803 155.386 17.874C156.071 18.5678 156.935 18.916 157.982 18.916C158.766 18.9159 159.531 18.7192 160.276 18.3271C161.022 17.935 161.661 17.3643 162.195 16.6211C162.73 15.8753 163.086 15.0004 163.267 13.9941C163.346 13.4704 163.388 13.0861 163.388 12.8447L163.391 12.8418C163.391 11.6546 163.042 10.728 162.349 10.0645C161.655 9.40081 160.783 9.06836 159.736 9.06836Z" fill="url(#paint0_linear_686_430)"/>
<defs>
<linearGradient id="paint0_linear_686_430" x1="49.4406" y1="11.3164" x2="181.888" y2="11.3164" gradientUnits="userSpaceOnUse">
<stop stop-color="#F45B25"/>
<stop offset="1" stop-color="#FF843E"/>
</linearGradient>
</defs>
</svg>
