<svg width="46" height="62" viewBox="0 0 46 62" fill="none" xmlns="http://www.w3.org/2000/svg">
<path d="M17.1006 57.1677L13.5101 60.7581C13.3692 60.9006 13.2015 61.0136 13.0166 61.0908C12.8317 61.1679 12.6333 61.2077 12.433 61.2077C12.2326 61.2077 12.0343 61.1679 11.8494 61.0908C11.6645 61.0136 11.4968 60.9006 11.3558 60.7581L0.44445 49.8528C0.15979 49.5666 0 49.1794 0 48.7757C0 48.372 0.15979 47.9848 0.44445 47.6986L4.03493 44.1081C4.17627 43.9666 4.34422 43.8545 4.52909 43.7783C4.71396 43.702 4.91209 43.6631 5.11207 43.6638C5.31204 43.6631 5.51018 43.702 5.69505 43.7783C5.87992 43.8545 6.04786 43.9666 6.18921 44.1081L17.1006 55.0195C17.3849 55.3047 17.5445 55.6909 17.5445 56.0936C17.5445 56.4963 17.3849 56.8825 17.1006 57.1677ZM40.8343 25.8453H4.32095C4.07885 25.8453 3.84667 25.9415 3.67548 26.1127C3.50429 26.2839 3.40811 26.5161 3.40811 26.7582V31.0181C3.40811 31.2602 3.50429 31.4923 3.67548 31.6635C3.84667 31.8347 4.07885 31.9309 4.32095 31.9309H40.8343C41.0764 31.9309 41.3085 31.8347 41.4797 31.6635C41.6509 31.4923 41.7471 31.2602 41.7471 31.0181V26.7582C41.7471 26.6373 41.7231 26.5176 41.6765 26.406C41.6298 26.2945 41.5615 26.1933 41.4754 26.1084C41.3894 26.0234 41.2873 25.9565 41.1752 25.9113C41.063 25.8661 40.943 25.8437 40.8221 25.8453H40.8343ZM27.5495 0.991945C27.475 0.886251 27.379 0.797469 27.2679 0.731404C27.1567 0.665338 27.0329 0.623476 26.9044 0.608555L21.1414 0L20.9406 1.82567L24.3242 2.19688L7.59497 14.0576L8.65386 15.5425L25.383 3.65133L24.6223 6.96796L26.3993 7.37569L27.6956 1.72221C27.7251 1.59714 27.7273 1.46717 27.7021 1.34116C27.6769 1.21514 27.6249 1.09603 27.5495 0.991945ZM44.6986 35.5701C43.9342 34.9374 42.9583 34.6182 41.9677 34.6769C40.9772 34.7356 40.0458 35.1679 39.3616 35.8865L34.9556 40.3776V43.7551C34.9556 44.709 34.5767 45.6238 33.9022 46.2983C33.2277 46.9728 32.3129 47.3517 31.3591 47.3517H21.1718V45.526H31.3591C31.5921 45.526 31.8229 45.48 32.0382 45.3906C32.2534 45.3013 32.4489 45.1703 32.6134 45.0052C32.7779 44.8401 32.9083 44.6442 32.9969 44.4286C33.0855 44.213 33.1308 43.9821 33.13 43.749V42.0025C33.1303 41.5307 32.948 41.077 32.6213 40.7367C32.2946 40.3963 31.8487 40.1957 31.3773 40.1768H23.7156C16.2912 36.5255 10.583 40.402 7.78363 43.1466L17.9587 53.3216L18.6159 52.78H31C32.0319 52.7764 33.0517 52.5582 33.9946 52.1391C34.9375 51.72 35.7829 51.1093 36.477 50.3458C38.7713 47.8324 42.5626 43.6517 44.9177 41.0896C45.564 40.4041 45.9458 39.5112 45.9948 38.5702C46.0157 38.0052 45.9102 37.4426 45.686 36.9236C45.4617 36.4045 45.1244 35.9421 44.6986 35.5701ZM30.1724 24.0075V10.3272C30.1724 10.0851 30.0762 9.8529 29.905 9.68171C29.7338 9.51052 29.5016 9.41435 29.2595 9.41435H24.9997C24.7576 9.41435 24.5254 9.51052 24.3542 9.68171C24.183 9.8529 24.0868 10.0851 24.0868 10.3272V24.0197L30.1724 24.0075ZM38.6921 24.0075V5.45874C38.6921 5.21664 38.596 4.98446 38.4248 4.81327C38.2536 4.64208 38.0214 4.54591 37.7793 4.54591H33.5194C33.2773 4.54591 33.0451 4.64208 32.874 4.81327C32.7028 4.98446 32.6066 5.21664 32.6066 5.45874V24.0197L38.6921 24.0075ZM21.6526 24.0075V13.9785C21.6526 13.7364 21.5564 13.5042 21.3852 13.333C21.214 13.1619 20.9819 13.0657 20.7398 13.0657H16.4799C16.2378 13.0657 16.0056 13.1619 15.8344 13.333C15.6632 13.5042 15.567 13.7364 15.567 13.9785V24.0197L21.6526 24.0075ZM13.1328 24.0075V18.847C13.1328 18.6049 13.0367 18.3727 12.8655 18.2015C12.6943 18.0303 12.4621 17.9341 12.22 17.9341H7.96011C7.71801 17.9341 7.48583 18.0303 7.31464 18.2015C7.14345 18.3727 7.04727 18.6049 7.04727 18.847V24.0197L13.1328 24.0075Z" fill="url(#paint0_linear_1_467)"/>
<defs>
<linearGradient id="paint0_linear_1_467" x1="-13.3811" y1="30.6038" x2="51.8516" y2="30.6038" gradientUnits="userSpaceOnUse">
<stop stop-color="#F45B25"/>
<stop offset="1" stop-color="#FF843E"/>
</linearGradient>
</defs>
</svg>
