<svg width="65" height="69" viewBox="0 0 65 69" fill="none" xmlns="http://www.w3.org/2000/svg">
<path d="M2.57175 45.8831C2.88594 45.7987 3.15407 45.5936 3.31771 45.3125C3.48135 45.0313 3.52724 44.6968 3.44539 44.382C2.41276 40.4854 2.18964 36.4185 2.7898 32.4323C3.38996 28.4461 4.80067 24.6252 6.93487 21.2054C9.06906 17.7856 11.8815 14.8395 15.1985 12.5488C18.5155 10.2581 22.2668 8.67151 26.2208 7.88693C26.6651 9.32824 27.6282 10.5535 28.9238 11.3257C30.2194 12.0978 31.7554 12.362 33.2345 12.067C34.7136 11.772 36.0307 10.9388 36.9309 9.72871C37.8311 8.5186 38.2505 7.01759 38.1079 5.51611C37.9652 4.01464 37.2707 2.61945 36.1587 1.60052C35.0467 0.581588 33.5962 0.0113575 32.088 0.000167845C30.5798 -0.0110218 29.1211 0.537625 27.9941 1.53994C26.8671 2.54226 26.152 3.92699 25.987 5.42618C25.0113 5.6077 24.046 5.84183 23.0955 6.12755C15.0729 8.44816 8.27627 13.8148 4.15831 21.0804C0.0403515 28.3461 -1.07224 36.9343 1.05833 45.0094C1.14575 45.3243 1.35332 45.5923 1.63637 45.7557C1.91943 45.9191 2.25532 45.9649 2.57175 45.8831Z" fill="url(#paint0_linear_1_492)"/>
<path d="M50.4974 59.9464C45.2465 64.1274 38.7323 66.4029 32.0202 66.4007C25.3081 66.3985 18.7954 64.1187 13.5473 59.9343C12.6161 59.2085 11.7363 58.4191 10.9141 57.5719C11.9022 56.47 12.4459 55.0406 12.4399 53.5607C12.4428 52.2452 12.0189 50.9643 11.2318 49.9102C10.4447 48.8562 9.33692 48.086 8.07476 47.7152C6.8126 47.3444 5.46422 47.3931 4.23209 47.854C2.99997 48.3148 1.95062 49.163 1.24161 50.2711C0.5326 51.3791 0.202206 52.6873 0.300042 53.9992C0.397878 55.311 0.918662 56.5557 1.78419 57.5464C2.64972 58.537 3.81327 59.2201 5.10013 59.4931C6.38698 59.7661 7.72767 59.6143 8.92087 59.0604C19.8689 70.8749 39.6707 72.1962 52.0478 61.8661C52.2941 61.6579 52.4491 61.3616 52.4797 61.0405C52.5102 60.7194 52.4138 60.3992 52.2112 60.1482C52.0086 59.8973 51.7158 59.7357 51.3955 59.698C51.0751 59.6603 50.7528 59.7494 50.4974 59.9464Z" fill="url(#paint1_linear_1_492)"/>
<path d="M61.6822 48.9835C62.2133 47.6912 62.6532 46.3632 62.9986 45.0093C65.0546 37.1257 64.0345 28.7552 60.1454 21.5962C56.2563 14.4371 49.7894 9.0256 42.0568 6.45961C41.7488 6.36581 41.4164 6.39651 41.1308 6.54512C40.8452 6.69374 40.6292 6.94841 40.5293 7.25445C40.4294 7.5605 40.4535 7.89353 40.5964 8.18202C40.7393 8.47052 40.9896 8.69149 41.2936 8.79748C57.2373 13.7575 65.8461 32.3479 59.529 47.7655C58.6184 47.4828 57.6542 47.4175 56.7138 47.5747C55.7734 47.7319 54.8829 48.1072 54.1137 48.6706C53.3445 49.234 52.7181 49.9698 52.2845 50.819C51.851 51.6682 51.6224 52.6071 51.6172 53.5606C51.8718 61.5978 63.5156 61.5856 63.774 53.5607C63.7754 52.6922 63.5892 51.8336 63.2282 51.0436C62.8671 50.2536 62.3398 49.5509 61.6822 48.9835Z" fill="url(#paint2_linear_1_492)"/>
<path d="M17.3127 22.1975C5.32159 34.168 14.014 54.8463 30.8477 54.7424C33.8978 54.7456 36.9034 54.0111 39.6083 52.6016L47.4462 53.7213C47.6351 53.7484 47.8277 53.7311 48.0087 53.6708C48.1897 53.6105 48.3543 53.5089 48.4892 53.3739C48.6241 53.239 48.7257 53.0745 48.786 52.8934C48.8463 52.7124 48.8636 52.5198 48.8365 52.3309L47.7168 44.493C57.3029 24.9437 33.0814 7.10914 17.3127 22.1975ZM22.1853 37.5287C21.7003 37.5218 21.2375 37.3244 20.897 36.979C20.5565 36.6336 20.3656 36.168 20.3656 35.683C20.3656 35.198 20.5565 34.7325 20.8971 34.3871C21.2376 34.0417 21.7004 33.8442 22.1854 33.8374C22.6705 33.844 23.1335 34.0414 23.4743 34.3868C23.815 34.7323 24.006 35.1979 24.006 35.6831C24.006 36.1683 23.8149 36.634 23.4742 36.9794C23.1335 37.3248 22.6704 37.5221 22.1853 37.5287ZM30.7984 37.5287C30.3134 37.5218 29.8506 37.3244 29.5101 36.979C29.1696 36.6336 28.9787 36.168 28.9787 35.683C28.9787 35.198 29.1696 34.7325 29.5101 34.3871C29.8507 34.0417 30.3135 33.8442 30.7985 33.8374C31.2836 33.844 31.7466 34.0414 32.0873 34.3868C32.4281 34.7323 32.6191 35.1979 32.6191 35.6831C32.6191 36.1683 32.428 36.634 32.0873 36.9794C31.7465 37.3248 31.2835 37.5221 30.7984 37.5287ZM39.4115 37.5287C38.9265 37.5218 38.4637 37.3244 38.1232 36.979C37.7826 36.6336 37.5917 36.168 37.5918 35.683C37.5918 35.198 37.7827 34.7325 38.1232 34.3871C38.4638 34.0417 38.9266 33.8442 39.4115 33.8374C39.8967 33.844 40.3597 34.0414 40.7004 34.3868C41.0411 34.7323 41.2322 35.1979 41.2321 35.6831C41.2321 36.1683 41.0411 36.634 40.7004 36.9794C40.3596 37.3248 39.8966 37.5221 39.4115 37.5287Z" fill="url(#paint3_linear_1_492)"/>
<defs>
<linearGradient id="paint0_linear_1_492" x1="-11.0939" y1="22.9614" x2="42.9888" y2="22.9614" gradientUnits="userSpaceOnUse">
<stop stop-color="#F45B25"/>
<stop offset="1" stop-color="#FF843E"/>
</linearGradient>
<linearGradient id="paint1_linear_1_492" x1="-14.9028" y1="58.1541" x2="59.1291" y2="58.1541" gradientUnits="userSpaceOnUse">
<stop stop-color="#F45B25"/>
<stop offset="1" stop-color="#FF843E"/>
</linearGradient>
<linearGradient id="paint2_linear_1_492" x1="33.6123" y1="32.9951" x2="67.0367" y2="32.9951" gradientUnits="userSpaceOnUse">
<stop stop-color="#F45B25"/>
<stop offset="1" stop-color="#FF843E"/>
</linearGradient>
<linearGradient id="paint3_linear_1_492" x1="0.645586" y1="35.6497" x2="54.751" y2="35.6497" gradientUnits="userSpaceOnUse">
<stop stop-color="#F45B25"/>
<stop offset="1" stop-color="#FF843E"/>
</linearGradient>
</defs>
</svg>
