<svg width="63" height="73" viewBox="0 0 63 73" fill="none" xmlns="http://www.w3.org/2000/svg">
<path d="M26.5145 64.3204L31.2585 72.1838L36.0188 64.3204H26.5145ZM31.2585 14.3945C30.6249 14.3945 30.04 14.6545 29.6339 15.0606C29.2114 15.483 28.9677 16.0517 28.9677 16.6853C28.9677 17.3189 29.2277 17.9038 29.6339 18.31C30.0563 18.7324 30.6249 18.9923 31.2585 18.9923C31.8921 18.9923 32.477 18.7324 32.8994 18.31C33.3218 17.8875 33.5655 17.3189 33.5655 16.6853C33.5655 16.0517 33.3056 15.4668 32.8994 15.0606C32.477 14.6382 31.8921 14.3945 31.2585 14.3945ZM19.2035 6.36868C18.8298 5.97876 18.8298 5.36139 19.2035 4.98772C19.5934 4.61404 20.2108 4.61404 20.5845 4.98772L22.1279 6.53115C22.5016 6.92106 22.5016 7.53844 22.1279 7.91211C21.738 8.28578 21.1206 8.28578 20.747 7.91211L19.2035 6.36868ZM15.1906 18.0175C14.6545 18.0175 14.2158 17.5789 14.2158 17.0427C14.2158 16.5066 14.6545 16.0679 15.1906 16.0679H17.3839C17.92 16.0679 18.3587 16.5066 18.3587 17.0427C18.3587 17.5789 17.92 18.0175 17.3839 18.0175H15.1906ZM41.9326 4.98772C42.3225 4.61404 42.9398 4.61404 43.3135 4.98772C43.6872 5.37763 43.6872 5.99501 43.3135 6.36868L41.7701 7.91211C41.3802 8.28578 40.7628 8.28578 40.3891 7.91211C40.0155 7.52219 40.0155 6.90482 40.3891 6.53115L41.9326 4.98772ZM47.3264 16.0679C47.8626 16.0679 48.3012 16.5066 48.3012 17.0427C48.3012 17.5789 47.8626 18.0175 47.3264 18.0175H45.1331C44.597 18.0175 44.1583 17.5789 44.1583 17.0427C44.1583 16.5066 44.597 16.0679 45.1331 16.0679H47.3264ZM30.2837 0.974798C30.2837 0.438659 30.7224 0 31.2585 0C31.7947 0 32.2333 0.438659 32.2333 0.974798V3.16809C32.2333 3.70423 31.7947 4.14289 31.2585 4.14289C30.7224 4.14289 30.2837 3.70423 30.2837 3.16809V0.974798ZM27.863 27.8792H30.2837V20.8444C29.5039 20.6657 28.8053 20.2595 28.2529 19.7072C27.4893 18.9273 27.0019 17.8713 27.0019 16.7015C27.0019 15.5318 27.4731 14.4595 28.2529 13.6959C29.0165 12.9323 30.0888 12.4449 31.2585 12.4449C32.4445 12.4449 33.5006 12.9161 34.2641 13.6959C35.0277 14.4595 35.5151 15.5318 35.5151 16.7015C35.5151 17.8713 35.044 18.9436 34.2641 19.7072C33.7118 20.2595 33.0132 20.6495 32.2333 20.8444V27.8792H34.6541V27.2131C34.6541 26.417 34.8165 25.6697 35.1415 24.9873C35.4664 24.305 35.9375 23.7038 36.5549 23.1839C36.7011 23.0702 36.8149 22.9727 36.8799 22.9077C36.9448 22.859 37.0423 22.7615 37.1885 22.6153C38.8294 20.9744 39.6418 18.8461 39.6418 16.6853C39.6418 14.5407 38.8294 12.3962 37.1885 10.7553C35.5476 9.11436 33.4031 8.30203 31.2585 8.30203C29.114 8.30203 26.9694 9.11436 25.3285 10.7553C23.6876 12.3962 22.8753 14.5407 22.8753 16.6853C22.8753 18.8298 23.6876 20.9744 25.3285 22.6153C25.4747 22.7615 25.5722 22.859 25.6372 22.9077C25.7022 22.9727 25.8159 23.054 25.9621 23.1839C26.5795 23.6876 27.0506 24.305 27.3756 24.9873C27.7005 25.6697 27.863 26.417 27.863 27.2131V27.8792ZM35.6939 32.9644C35.6289 32.8344 35.5964 32.6882 35.5964 32.5258V30.2512C35.5964 30.1375 35.5476 30.0238 35.4664 29.9425C35.3852 29.8613 35.2714 29.8126 35.1577 29.8126H27.3593C27.2456 29.8126 27.1319 29.8613 27.0506 29.9425C26.9694 30.0238 26.9207 30.1375 26.9207 30.2512V32.5258C26.9207 32.672 26.8882 32.8182 26.8232 32.9644H35.6939ZM36.7661 46.3029C35.9863 47.2939 35.2714 48.415 34.5566 49.5197L34.5403 49.536L34.5241 49.5522C32.9644 52.0055 31.4047 54.4587 29.2114 56.3596C28.2042 57.2369 27.0669 57.968 25.7509 58.5366V62.3708H36.7499V46.3029H36.7661ZM38.6995 57.6593H42.3712H42.4525H42.4849C44.0446 57.6593 45.5556 57.3993 46.904 56.9119C48.3175 56.4083 49.601 55.661 50.6732 54.7349C51.7943 53.7601 52.7203 52.6066 53.3377 51.3231C53.9226 50.0884 54.2475 48.7399 54.2475 47.2939C54.2475 45.8642 53.9226 44.4995 53.3377 43.281C52.7203 41.9975 51.8105 40.8278 50.6732 39.8692C49.601 38.9432 48.3175 38.1958 46.904 37.6922C45.5393 37.2048 44.0446 36.9286 42.4849 36.9286C35.2877 36.9286 32.3308 41.5751 29.3902 46.2054C29.3739 46.2217 29.3739 46.2379 29.3577 46.2542C28.2529 47.9925 27.1481 49.7309 25.7347 51.0794C25.6534 51.1606 25.5722 51.2419 25.4747 51.3069C25.4422 51.3394 25.4097 51.3718 25.361 51.4043C23.9313 52.6553 22.2254 53.4677 20.0159 53.4677C18.9761 53.4677 17.9688 53.2889 17.059 52.9803C16.1004 52.6553 15.2556 52.1679 14.5407 51.5506C13.8909 50.9982 13.371 50.3321 13.0136 49.6172C12.6561 48.8861 12.4612 48.1063 12.4612 47.2939C12.4612 46.4816 12.6561 45.7018 13.0136 44.9707C13.371 44.2396 13.8909 43.5897 14.5407 43.0373C15.2556 42.4362 16.1004 41.9488 17.059 41.6076C17.9688 41.2989 18.9761 41.1202 20.0159 41.1202H23.7851V36.9286H20.0159C18.4399 36.9286 16.9452 37.2048 15.5968 37.6922C14.1833 38.1958 12.8998 38.9432 11.8275 39.8692C10.7065 40.844 9.78047 41.9975 9.1631 43.281C8.57822 44.5158 8.25329 45.8642 8.25329 47.2939C8.25329 48.7236 8.57822 50.0884 9.1631 51.3231C9.78047 52.6066 10.6903 53.7764 11.8275 54.7349C12.8998 55.661 14.1833 56.4083 15.5968 56.9119C16.9615 57.3993 18.4399 57.6593 20.0159 57.6593C23.5414 57.6593 25.9946 56.5545 27.928 54.8974C29.8938 53.1915 31.3885 50.852 32.8669 48.5124C32.8832 48.4962 32.8832 48.4799 32.8994 48.4637C35.2227 44.8082 37.5622 41.1365 42.4525 41.1365C43.4922 41.1365 44.4995 41.3152 45.4093 41.6239C46.3679 41.965 47.2127 42.4362 47.9276 43.0536C48.5774 43.606 49.1136 44.2721 49.471 44.9869C49.8284 45.7018 50.0234 46.4816 50.0234 47.3102C50.0234 48.1388 49.8284 48.9024 49.471 49.6335C49.1136 50.3646 48.5937 51.0144 47.9276 51.5668C47.229 52.1679 46.3679 52.6553 45.4093 52.9965C44.4995 53.3214 43.4922 53.4839 42.4525 53.4839H38.6832V57.6593H38.6995ZM25.7509 42.095V48.1225C26.4333 47.2127 27.0831 46.2054 27.7168 45.1981L27.733 45.1819L27.7492 45.1656C30.0888 41.4614 32.4608 37.7572 36.7661 36.0188V34.9303H25.7672V35.9538V35.97V42.095H25.7509ZM44.1096 63.4431L46.9203 61.331C47.3427 61.0061 47.9601 61.1036 48.285 61.526C48.3987 61.6722 48.4475 61.8347 48.4637 61.9971L48.5287 62.5658C49.666 62.2246 50.7707 61.7697 51.8268 61.2011C52.964 60.5999 54.0201 59.8851 54.9949 59.0403C56.7495 57.5456 58.1467 55.7259 59.1052 53.6951C60.0313 51.7293 60.535 49.5685 60.535 47.3102C60.535 45.0519 60.0313 42.8911 59.1052 40.9253C58.1467 38.9107 56.7495 37.0911 54.9949 35.5801C53.3539 34.1829 51.4693 33.1106 49.471 32.3795C47.4239 31.6484 45.2306 31.2585 43.0373 31.2585C42.5012 31.2585 42.0625 30.8199 42.0625 30.2837C42.0625 29.7476 42.5012 29.3089 43.0373 29.3089C45.4581 29.3089 47.8626 29.7313 50.1371 30.5599C52.3629 31.356 54.4425 32.542 56.2621 34.1017C58.2279 35.7913 59.8039 37.8222 60.8761 40.0967C61.9322 42.3225 62.5008 44.7595 62.5008 47.3102C62.5008 49.8609 61.9322 52.3142 60.8761 54.5237C59.8039 56.7982 58.2279 58.829 56.2621 60.5187C55.1736 61.461 53.9876 62.2571 52.7366 62.9232C51.4856 63.5893 50.1534 64.1255 48.7724 64.5154L48.9024 65.5389C48.9673 66.0751 48.5937 66.5624 48.0575 66.6274C47.8626 66.6437 47.6676 66.6112 47.5051 66.53L44.2721 65.149C43.7847 64.9378 43.541 64.3691 43.7522 63.8655C43.8334 63.6868 43.9634 63.5406 44.1096 63.4431ZM18.4074 31.161L15.5968 33.2731C15.1744 33.598 14.557 33.5005 14.232 33.0781C14.1183 32.9319 14.0696 32.7857 14.0371 32.607L13.9721 32.0546C12.8348 32.3958 11.7301 32.8507 10.674 33.4031C9.53677 34.0042 8.48074 34.719 7.50594 35.5639C5.75131 37.0748 4.3541 38.8944 3.39555 40.909C2.46949 42.8749 1.96584 45.0357 1.96584 47.2939C1.96584 49.5522 2.46949 51.713 3.39555 53.6789C4.3541 55.6935 5.75131 57.5131 7.50594 59.024C9.14685 60.4212 11.0315 61.4935 13.0298 62.2246C15.0769 62.9719 17.2702 63.3456 19.4635 63.3456C19.9996 63.3456 20.4383 63.7843 20.4383 64.3204C20.4383 64.8566 19.9996 65.2952 19.4635 65.2952C17.0427 65.2952 14.6382 64.8728 12.3637 64.0605C10.1379 63.2481 8.05833 62.0621 6.23871 60.5025C4.27286 58.8291 2.69694 56.782 1.62466 54.5074C0.568632 52.2817 0 49.8447 0 47.2939C0 44.7432 0.568632 42.3062 1.62466 40.0804C2.69694 37.8059 4.27286 35.7751 6.23871 34.0854C7.32723 33.1431 8.51324 32.347 9.76423 31.6972C11.0315 31.0311 12.3637 30.4949 13.7284 30.105L13.5984 29.0815C13.5334 28.5453 13.9071 28.0579 14.4433 27.9929C14.6382 27.9767 14.8332 28.0092 14.9956 28.0904L18.2287 29.4551C18.7161 29.6663 18.9598 30.235 18.7486 30.7386C18.6836 30.9011 18.5537 31.0473 18.4074 31.161Z" fill="url(#paint0_linear_1_473)"/>
<defs>
<linearGradient id="paint0_linear_1_473" x1="-18.182" y1="36.0919" x2="70.4554" y2="36.0919" gradientUnits="userSpaceOnUse">
<stop stop-color="#F45B25"/>
<stop offset="1" stop-color="#FF843E"/>
</linearGradient>
</defs>
</svg>
