<svg width="64" height="64" viewBox="0 0 64 64" fill="none" xmlns="http://www.w3.org/2000/svg">
<path d="M62.5183 53.4644C62.4783 53.4147 60.6117 51.1985 58.176 48.9325C59.1542 47.6048 59.8929 46.0977 60.3721 44.4605C62.6121 36.7856 58.2103 28.8412 50.6295 26.6223C49.5215 26.303 48.4035 26.1134 47.3055 26.0735V21.6614H54.4626C56.7786 21.6614 58.6551 19.7747 58.6551 17.4688V6.67799C58.6551 2.99464 55.6604 0 51.9771 0H6.66812C2.99464 0 0 2.99464 0 6.67799V54.273C0 57.9466 2.99464 60.9413 6.66812 60.9413H40.6374C44.1411 60.9413 47.026 58.2162 47.2855 54.7819C47.9243 54.7522 48.5633 54.6825 49.192 54.5625C50.35 57.2077 51.7075 59.6935 52.4962 60.7712C54.6346 63.7092 58.7157 64.9046 61.6397 62.7676C64.5504 60.6329 64.6821 56.4314 62.5183 53.4644ZM58.4555 43.8917C56.5749 50.4002 49.7714 54.2098 43.1029 52.2966C38.8927 51.0595 35.8156 47.7359 34.7279 43.9317C34.2057 42.213 34.1052 40.5458 34.3187 38.731C35.5119 30.9123 43.1088 26.4851 50.0606 28.5388C56.4483 30.4078 60.4189 37.1923 58.4555 43.8917ZM40.6374 58.9448H6.66812C4.09278 58.9448 1.99643 56.8485 1.99643 54.273V6.67799C1.99643 4.09278 4.09278 1.99643 6.66812 1.99643H47.2256C45.9685 3.25351 45.3091 5.01474 45.3091 6.67799V20.6632V26.1037C40.3778 26.5526 35.9159 29.537 33.6897 34.0792C33.3105 33.8496 32.8514 33.7097 32.3721 33.7097H23.6977V30.755H23.8075C24.7258 30.755 25.5244 30.1063 25.6941 29.208L25.8139 28.589C26.4827 28.3892 27.1216 28.1196 27.7404 27.7804L28.2595 28.1299C29.0381 28.6387 30.0563 28.5388 30.6752 27.8803L32.1924 26.3727C32.8713 25.724 32.971 24.7058 32.442 23.9372L32.0927 23.4083C32.4221 22.7893 32.6915 22.1406 32.8912 21.4616L33.4901 21.3417C34.3886 21.1721 35.0474 20.3835 35.0474 19.4652V17.2991C35.0474 16.3711 34.3886 15.5825 33.4901 15.4026L32.8713 15.2827C32.6717 14.634 32.4021 13.975 32.0628 13.356L32.4021 12.8471C32.9112 12.0785 32.8214 11.0603 32.1725 10.4213L30.6552 8.90399C30.0064 8.2455 28.9882 8.13584 28.2195 8.65444L27.6806 9.00391C27.0517 8.66468 26.4028 8.39514 25.744 8.20554L25.6243 7.62649C25.4645 6.71796 24.6759 6.04924 23.7476 6.04924H21.5815C20.6431 6.04924 19.8646 6.70821 19.6949 7.61626L19.5851 8.22552C18.9062 8.43511 18.2474 8.70464 17.6286 9.03413L17.1195 8.70464C16.3609 8.18555 15.3427 8.27524 14.7038 8.92398L13.1865 10.4613C12.5276 11.0905 12.4178 12.1185 12.9369 12.8969L13.2863 13.4159C12.9569 14.0452 12.6874 14.6939 12.4877 15.3524L11.8789 15.4723C10.9705 15.6619 10.3516 16.4306 10.3516 17.3488V19.5251C10.3516 20.4536 11.0003 21.2423 11.8989 21.4017L12.5077 21.5318C12.7074 22.1903 12.9868 22.8293 13.3163 23.4683L12.9569 23.9771C12.4678 24.7258 12.5776 25.744 13.2065 26.383L14.7436 27.9203C15.3726 28.569 16.3908 28.6787 17.1694 28.1698L17.6984 27.8106C18.3073 28.1396 18.9562 28.4091 19.635 28.609L19.7547 29.228C19.9444 30.1263 20.7129 30.755 21.6315 30.755H21.6913V33.7097H13.0168C11.6293 33.7097 10.4912 34.8381 10.4912 36.2355V38.731H7.87605C6.74794 38.731 5.82966 39.6493 5.82966 40.7772V43.8917C5.82966 45.0298 6.74794 45.9481 7.87605 45.9481H10.4912V50.7491C10.4912 52.1469 11.6293 53.2748 13.0168 53.2748H16.4507V53.8339C16.4507 54.972 17.3691 55.8903 18.4969 55.8903H25.714C26.8521 55.8903 27.7704 54.972 27.7704 53.8339V50.7193C27.7704 49.5915 26.8521 48.6732 25.714 48.6732H18.4969C17.3691 48.6732 16.4507 49.5915 16.4507 50.7193V51.2784H13.0168C12.7272 51.2784 12.4877 51.0488 12.4877 50.7491V45.9481H15.1031C16.231 45.9481 17.1494 45.0298 17.1494 43.8917V40.7772C17.1494 39.6493 16.231 38.731 15.1031 38.731H12.4877V36.2355C12.4877 35.9357 12.7272 35.7061 13.0168 35.7061H22.6895H22.6995H32.3721C32.6118 35.7061 32.8114 35.866 32.8812 36.0858C32.8514 36.1755 32.8214 36.275 32.7914 36.3749C32.5619 37.1635 32.4021 37.9521 32.3223 38.731H30.2859C29.1579 38.731 28.2395 39.6493 28.2395 40.7772V43.8917C28.2395 45.0298 29.1579 45.9481 30.2859 45.9481H33.3305C34.9475 49.8113 38.2217 52.9453 42.544 54.2131C43.4523 54.4729 44.3707 54.6522 45.2891 54.7322C45.0595 57.0878 43.0631 58.9448 40.6374 58.9448ZM22.6895 24.117C19.5451 24.117 16.9796 21.5615 16.9796 18.407C16.9796 15.2627 19.5451 12.6975 22.6895 12.6975C25.8439 12.6975 28.3993 15.2627 28.3993 18.407C28.3993 21.5615 25.8439 24.117 22.6895 24.117Z" fill="url(#paint0_linear_1_450)"/>
<path d="M49.2415 31.2945C43.7631 29.6686 38.0366 33.4311 37.2329 38.7314C36.4111 43.2508 39.0392 48.1208 43.911 49.5319C48.6666 50.9681 54.1179 48.356 55.6999 43.0834C57.1672 38.0621 54.2725 32.7718 49.2415 31.2945ZM45.9573 43.1634C45.4794 43.5083 44.8902 43.4075 44.5599 42.9738L43.0526 40.9773C42.7231 40.5382 42.803 39.9192 43.2422 39.5799C43.6814 39.2505 44.3104 39.3401 44.6397 39.7793C44.7178 39.8813 45.6262 41.0691 45.5481 40.9671C45.6506 40.8897 48.0486 39.0804 48.8821 38.4516C49.3214 38.1221 49.9402 38.202 50.2797 38.6412C50.609 39.0808 50.5192 39.7096 50.0801 40.0391C49.9777 40.1167 45.8548 43.2408 45.9573 43.1634Z" fill="url(#paint1_linear_1_450)"/>
<defs>
<linearGradient id="paint0_linear_1_450" x1="-18.6184" y1="31.9275" x2="72.1464" y2="31.9275" gradientUnits="userSpaceOnUse">
<stop stop-color="#F45B25"/>
<stop offset="1" stop-color="#FF843E"/>
</linearGradient>
<linearGradient id="paint1_linear_1_450" x1="31.5575" y1="40.4171" x2="58.4993" y2="40.4171" gradientUnits="userSpaceOnUse">
<stop stop-color="#F45B25"/>
<stop offset="1" stop-color="#FF843E"/>
</linearGradient>
</defs>
</svg>
