<svg width="64" height="59" viewBox="0 0 64 59" fill="none" xmlns="http://www.w3.org/2000/svg">
<path fill-rule="evenodd" clip-rule="evenodd" d="M19.2162 38.093C17.0989 39.1154 15.017 40.112 14.6714 40.2714C11.5972 41.6904 8.62965 42.405 6.20989 42.3898C3.60427 42.3735 1.57856 41.5163 0.596034 39.7895C-0.50161 37.8607 0.0100808 35.3099 1.73256 32.746C2.79848 31.1593 4.34324 29.5439 6.25608 28.0686C6.30086 28.0341 6.31785 27.9774 6.2996 27.9239C6.28121 27.8704 6.23305 27.8362 6.17648 27.8364L5.09723 27.8409C4.56378 27.843 4.12958 27.4122 4.12747 26.8788C4.12537 26.3453 4.5562 25.9111 5.08965 25.909L9.80169 25.8891C10.4847 25.8863 10.9473 26.5716 10.7084 27.1988L10.7108 27.1998L9.02988 31.6019C8.83952 32.1018 8.27982 32.3529 7.77978 32.1626C7.27974 31.9722 7.02874 31.4125 7.21909 30.9125L7.67688 29.7136C7.69794 29.6586 7.68039 29.5987 7.63322 29.5634C7.58605 29.5283 7.52358 29.5287 7.47683 29.5645C5.71659 30.9153 4.30365 32.3855 3.33867 33.8219C0.820784 37.5699 1.69438 40.4298 6.21747 40.458C8.3618 40.4713 11.0406 39.8156 13.8607 38.5139C14.209 38.3531 16.2522 37.3754 18.3349 36.37C18.3981 36.3395 18.4743 36.3649 18.5065 36.4272L19.2751 37.917C19.2918 37.9493 19.2943 37.9829 19.2828 38.0175C19.2714 38.0517 19.2489 38.0773 19.2162 38.093ZM24.6701 46.639H39.3301C39.8772 46.639 40.3751 46.4145 40.7367 46.0529C41.0984 45.6913 41.3228 45.1932 41.3228 44.6463C41.3228 44.0992 41.0984 43.6012 40.7367 43.2395C40.3751 42.8779 39.8772 42.6534 39.3301 42.6534H24.6701C24.1231 42.6534 23.6251 42.8779 23.2634 43.2395C22.9018 43.6012 22.6773 44.0991 22.6773 44.6462C22.6773 45.1932 22.9018 45.6913 23.2634 46.0529C23.6251 46.4145 24.1231 46.639 24.6701 46.639ZM25.3317 52.5641H37.8755H38.849H39.3301C39.5011 52.5641 39.6673 52.5422 39.8259 52.5009C40.1751 52.4104 40.4881 52.2265 40.7367 51.978C41.0984 51.6164 41.3228 51.1183 41.3228 50.5714C41.3228 50.0243 41.0984 49.5262 40.7367 49.1646C40.3751 48.803 39.8772 48.5785 39.3301 48.5785H24.6701C24.1231 48.5785 23.6251 48.803 23.2634 49.1646C22.9018 49.5262 22.6773 50.0242 22.6773 50.5712C22.6773 51.1183 22.9018 51.6164 23.2634 51.978C23.2963 52.0109 23.3303 52.0426 23.3652 52.073C23.6406 52.313 23.9815 52.4789 24.356 52.5391C24.4584 52.5555 24.5632 52.5641 24.6701 52.5641H25.3317ZM37.545 54.5037H26.4552C26.409 54.5037 26.3691 54.5259 26.3448 54.5652C26.3205 54.6045 26.3184 54.65 26.3392 54.6914C26.6353 55.2831 27.0252 55.8208 27.4891 56.2846C28.5925 57.388 30.1135 58.0728 31.7859 58.0728H32.2143C33.8867 58.0728 35.4077 57.3879 36.5111 56.2846C36.9749 55.8208 37.3649 55.2831 37.661 54.6913C37.6816 54.6499 37.6796 54.6045 37.6554 54.5651C37.6311 54.5258 37.5913 54.5037 37.545 54.5037ZM43.4197 6.10651L50.0088 2.73959C50.0115 2.73819 50.0137 2.73721 50.0165 2.73594C52.9115 1.48725 55.735 0.885435 58.0482 0.960118C60.501 1.03929 62.4713 1.89464 63.4046 3.54538C64.5125 5.47114 64.0033 8.01654 62.2839 10.576C61.2157 12.1661 59.6651 13.7854 57.7463 15.264C57.7016 15.2985 57.6844 15.3553 57.7028 15.4087C57.7212 15.4622 57.7694 15.4966 57.8261 15.4963L58.9039 15.4919C59.4374 15.4897 59.8716 15.9206 59.8737 16.454C59.8758 16.9875 59.445 17.4217 58.9115 17.4238L54.2399 17.4434C54.2391 17.4434 54.2383 17.4434 54.2375 17.4434C53.5079 17.4599 53.054 16.7606 53.2923 16.1337L53.2904 16.133L54.9713 11.731C55.1616 11.231 55.7213 10.98 56.2214 11.1703C56.7214 11.3607 56.9724 11.9204 56.7821 12.4204L56.3237 13.6207C56.3027 13.6757 56.3202 13.7357 56.3674 13.7709C56.4145 13.8062 56.477 13.8057 56.5238 13.7699C58.291 12.4154 59.7103 10.9405 60.6779 9.50023C63.1092 5.88105 62.4107 3.03482 57.9878 2.89205C55.9551 2.82649 53.4236 3.37693 50.782 4.5164C50.7793 4.51753 50.7771 4.51865 50.7744 4.51991L44.9441 7.4939C44.8953 7.51888 44.8388 7.5113 44.7982 7.47452C44.3516 7.07008 43.8853 6.68684 43.4016 6.32578C43.3647 6.29827 43.346 6.25685 43.3499 6.21095C43.3534 6.16504 43.3787 6.12742 43.4197 6.10651ZM41.2827 40.9748C44.3048 32.8051 49.1338 28.7479 49.1338 21.6156C49.1338 12.153 41.4629 4.48215 32.0004 4.48215C22.5379 4.48215 14.8671 12.153 14.8671 21.6156C14.8671 28.7478 19.6961 32.805 22.7182 40.9748C22.7307 41.0087 22.7537 41.0334 22.7867 41.0483C22.8197 41.0631 22.8534 41.0639 22.8871 41.0507C23.4402 40.8335 24.0417 40.7141 24.6703 40.7141H30.901C30.9725 40.7141 31.0306 40.6558 31.0306 40.5845V27.4521C31.0306 27.4069 31.0096 27.368 30.9717 27.3434C30.9337 27.3189 30.8897 27.3152 30.8484 27.3336C30.658 27.418 30.4734 27.5242 30.2981 27.6521L26.9967 30.0605C26.1212 30.6992 24.9303 29.8339 25.2672 28.804L26.5374 24.9199C26.9343 23.7066 26.5196 22.4305 25.4854 21.6821L22.1748 19.2865C21.2935 18.6488 21.7476 17.2511 22.8354 17.2532L26.9219 17.2611C28.1986 17.2635 29.284 16.4748 29.6762 15.2599L30.9315 11.3711C31.266 10.3348 32.735 10.3348 33.0694 11.3711L34.3247 15.2599C34.7167 16.4748 35.8023 17.2635 37.0789 17.2611L41.1655 17.2532C42.2533 17.2511 42.7073 18.6488 41.8261 19.2865L38.5155 21.6821C37.4813 22.4305 37.0666 23.7066 37.4635 24.9199L38.7336 28.804C39.0705 29.8341 37.8797 30.6992 37.0041 30.0605L33.7028 27.6521C33.5273 27.5241 33.3428 27.418 33.1525 27.3336C33.1112 27.3152 33.0671 27.3189 33.0292 27.3434C32.9913 27.368 32.9703 27.4069 32.9703 27.4521V40.5845C32.9703 40.6559 33.0285 40.7141 33.1 40.7141H39.3305C39.9592 40.7141 40.5607 40.8334 41.1138 41.0507C41.1475 41.0639 41.1812 41.0632 41.2142 41.0483C41.2473 41.0334 41.2702 41.0087 41.2827 40.9748ZM51.1505 23.583L57.4002 27.7984C57.402 27.7995 57.4034 27.8006 57.4051 27.8019C59.9381 29.6874 61.8729 31.8328 62.9643 33.8726C64.1284 36.0479 64.361 38.1466 63.4083 39.7964C62.2957 41.7237 59.8341 42.5577 56.754 42.3482C54.8441 42.2183 52.6672 41.6852 50.428 40.7629C50.3756 40.7413 50.3181 40.7549 50.2808 40.7976C50.2436 40.8403 50.2382 40.8992 50.2665 40.9481L50.8092 41.879C51.0771 42.3412 50.9193 42.9332 50.4569 43.2011C49.9946 43.4689 49.4026 43.3111 49.1348 42.8487L46.7907 38.828C46.7901 38.8271 46.7896 38.8262 46.789 38.8252C46.4021 38.199 46.7552 37.4246 47.509 37.3285C47.5104 37.3283 47.5117 37.3281 47.5131 37.3279L52.0999 36.5932C52.6272 36.5095 53.1223 36.869 53.206 37.3963C53.2896 37.9234 52.9301 38.4187 52.4029 38.5024L51.1341 38.7056C51.076 38.7149 51.0327 38.76 51.0259 38.8185C51.019 38.8769 51.0506 38.9309 51.105 38.9534C53.1623 39.8066 55.1503 40.2987 56.8827 40.4165C61.25 40.7135 63.3384 38.6667 61.2597 34.7818C60.299 32.9866 58.5569 31.0693 56.2513 29.3534C55.8509 29.0555 53.2468 27.3023 50.6898 25.5993C50.644 25.5689 50.623 25.5159 50.6353 25.4623C50.7712 24.872 50.8763 24.2771 50.9495 23.6751C50.9551 23.6291 50.9821 23.5921 51.0243 23.5728C51.0664 23.5533 51.112 23.5571 51.1505 23.583ZM12.8024 19.964L7.23229 15.962C4.46411 14.0076 2.36007 11.7936 1.16289 9.6896C-0.124264 7.42749 -0.393797 5.24597 0.610774 3.53107C1.7334 1.61458 4.19808 0.781552 7.27862 0.991142C9.18444 1.12071 11.3547 1.65094 13.5882 2.56973C13.6406 2.59121 13.6981 2.57759 13.7353 2.53492C13.7725 2.49224 13.778 2.43342 13.7496 2.38457L13.2062 1.45258C12.9384 0.9903 13.0962 0.398311 13.5586 0.130463C14.0209 -0.137385 14.6129 0.0204034 14.8806 0.48282L17.2538 4.5536C17.5878 5.12833 17.2609 5.8986 16.5268 5.99982C16.5258 5.99996 16.525 6.0001 16.524 6.00024L11.9156 6.7385C11.3884 6.82217 10.8932 6.46265 10.8095 5.93538C10.7258 5.40811 11.0853 4.91298 11.6126 4.82931L12.8798 4.62632C12.938 4.61706 12.9812 4.57185 12.9881 4.51345C12.995 4.45506 12.9634 4.40115 12.9089 4.37855C10.8585 3.52938 8.8777 3.04071 7.15003 2.92321C2.67157 2.61859 0.595051 4.78116 2.84495 8.73515C3.90497 10.5982 5.81093 12.5888 8.34622 14.3788L13.2173 17.884C13.2593 17.9141 13.2787 17.9629 13.269 18.0135C13.1525 18.6228 13.0643 19.2421 13.0072 19.8705C13.0028 19.9181 12.9754 19.9568 12.9319 19.9766C12.8883 19.9964 12.8411 19.9918 12.8024 19.964Z" fill="url(#paint0_linear_1_462)"/>
<defs>
<linearGradient id="paint0_linear_1_462" x1="-18.6183" y1="29.0364" x2="72.1457" y2="29.0364" gradientUnits="userSpaceOnUse">
<stop stop-color="#F45B25"/>
<stop offset="1" stop-color="#FF843E"/>
</linearGradient>
</defs>
</svg>
