<svg width="54" height="54" viewBox="0 0 54 54" fill="none" xmlns="http://www.w3.org/2000/svg">
<path d="M14.2545 19.584H12.4728C11.9811 19.584 11.582 19.9819 11.582 20.4742V27.5955C11.582 28.0878 11.9811 28.4857 12.4728 28.4857H14.2545C15.7279 28.4857 16.9269 27.2875 16.9269 25.8152C16.9269 25.1315 16.6686 24.5075 16.2446 24.0348C16.6686 23.5622 16.9269 22.9382 16.9269 22.2545C16.9269 20.7822 15.7279 19.584 14.2545 19.584ZM14.2545 26.7054H13.3637V24.925H14.2545C14.7453 24.925 15.1453 25.3238 15.1453 25.8152C15.1453 26.3066 14.7453 26.7054 14.2545 26.7054ZM14.2545 23.1447H13.3637V21.3643H14.2545C14.7453 21.3643 15.1453 21.7631 15.1453 22.2545C15.1453 22.7459 14.7453 23.1447 14.2545 23.1447Z" fill="url(#paint0_linear_81_176)"/>
<path d="M23.1652 22.2545C23.1652 20.7822 21.9662 19.584 20.4928 19.584H18.7111C18.2194 19.584 17.8203 19.9819 17.8203 20.4742V28.4857H19.6019V24.925H20.0999C20.9275 25.8704 21.3836 27.065 21.3836 28.3326V28.4857H23.1652V28.3326C23.1652 26.9333 22.7554 25.598 21.9929 24.4621C22.6993 23.9814 23.1652 23.1714 23.1652 22.2545ZM19.6019 21.3643H20.4928C20.9836 21.3643 21.3836 21.7631 21.3836 22.2545C21.3836 22.7459 20.9836 23.1447 20.4928 23.1447H19.6019V21.3643Z" fill="url(#paint1_linear_81_176)"/>
<path d="M26.7271 19.584C25.2537 19.584 24.0547 20.7822 24.0547 22.2545V28.4857H25.8363V25.8152H27.618V28.4857H29.3996V22.2545C29.3996 20.7822 28.2006 19.584 26.7271 19.584ZM25.8363 24.0348V22.2545C25.8363 21.7631 26.2363 21.3643 26.7271 21.3643C27.218 21.3643 27.618 21.7631 27.618 22.2545V24.0348H25.8363Z" fill="url(#paint2_linear_81_176)"/>
<path d="M33.8523 23.8261L31.9772 20.0776C31.7919 19.7082 31.3821 19.5159 30.975 19.6094C30.5732 19.7046 30.2891 20.0634 30.2891 20.4764V28.488H32.0707V24.2472L33.9459 27.9957C34.0991 28.3028 34.4109 28.488 34.7431 28.488C34.8109 28.488 34.8794 28.4799 34.948 28.4648C35.3498 28.3696 35.634 28.0108 35.634 27.5978V19.5862H33.8523V23.8261Z" fill="url(#paint3_linear_81_176)"/>
<path d="M39.1959 19.584H37.4143C36.9225 19.584 36.5234 19.9819 36.5234 20.4742V27.5955C36.5234 28.0878 36.9225 28.4857 37.4143 28.4857H39.1959C40.6693 28.4857 41.8683 27.2875 41.8683 25.8152V22.2545C41.8683 20.7822 40.6693 19.584 39.1959 19.584ZM40.0867 25.8152C40.0867 26.3066 39.6867 26.7054 39.1959 26.7054H38.3051V21.3643H39.1959C39.6867 21.3643 40.0867 21.7631 40.0867 22.2545V25.8152Z" fill="url(#paint4_linear_81_176)"/>
<path d="M49.8858 10.6821C50.3775 10.6821 50.7766 10.2842 50.7766 9.7919V8.01156H53.449V6.23121H50.7766V4.45087C50.7766 3.9586 50.3775 3.56069 49.8858 3.56069H48.1041V0H46.3225V3.56069H44.5409C44.0491 3.56069 43.6501 3.9586 43.6501 4.45087V6.23121H9.79899V4.45087C9.79899 3.9586 9.39991 3.56069 8.90817 3.56069H7.12654V0H5.3449V3.56069H3.56327C3.07154 3.56069 2.67245 3.9586 2.67245 4.45087V6.23121H0V8.01156H2.67245V9.7919C2.67245 10.2842 3.07154 10.6821 3.56327 10.6821H5.3449V42.7283H3.56327C3.07154 42.7283 2.67245 43.1262 2.67245 43.6185V45.3988H0V47.1792H2.67245V48.9595C2.67245 49.4518 3.07154 49.8497 3.56327 49.8497H5.3449V53.4104H7.12654V49.8497H8.90817C9.39991 49.8497 9.79899 49.4518 9.79899 48.9595V47.1792H28.1374L32.3304 51.3692C32.5041 51.5428 32.7322 51.63 32.9602 51.63C33.1883 51.63 33.4163 51.5428 33.5901 51.3692L37.7831 47.1792H43.6501V48.9595C43.6501 49.4518 44.0491 49.8497 44.5409 49.8497H46.3225V53.4104H48.1041V49.8497H49.8858C50.3775 49.8497 50.7766 49.4518 50.7766 48.9595V47.1792H53.449V45.3988H50.7766V43.6185C50.7766 43.1262 50.3775 42.7283 49.8858 42.7283H48.1041V10.6821H49.8858ZM45.4317 5.34104H48.995V8.90173H45.4317V5.34104ZM4.45409 5.34104H8.01736V8.90173H4.45409V5.34104ZM8.01736 48.0693H4.45409V44.5087H8.01736V48.0693ZM25.4649 40.0578C26.5161 40.0578 27.5031 39.6492 28.246 38.9068C28.989 38.1644 29.397 37.1781 29.397 36.1286V35.6069H27.6153V36.1286C27.6153 36.3894 27.5637 36.6413 27.4746 36.8781L23.0419 32.4486L31.2036 33.7037C31.3541 35.9835 32.1754 38.1626 33.5598 39.9795L29.3195 44.2167C27.5013 42.8333 25.3197 42.0126 23.0383 41.8622L21.7832 33.7073L26.215 38.1359C25.9771 38.224 25.7259 38.2766 25.4649 38.2766H24.9429V40.0569L25.4649 40.0578ZM32.9602 49.4812L29.7658 46.289L35.6327 40.4263L38.8272 43.6185L32.9602 49.4812ZM48.995 48.0693H45.4317V44.5087H48.995V48.0693ZM46.3225 42.7283H44.5409C44.0491 42.7283 43.6501 43.1262 43.6501 43.6185V45.3988H39.5648L40.7166 44.2478C41.0649 43.8998 41.0649 43.3372 40.7166 42.9891L36.2625 38.5383C35.9142 38.1902 35.3512 38.1902 35.0029 38.5383L34.8319 38.7092C33.6203 37.0357 32.9602 35.0194 32.9602 32.9364C32.9602 32.4975 32.6396 32.1237 32.2048 32.0569L20.6242 30.2766C20.3463 30.2347 20.0603 30.3264 19.859 30.5267C19.6586 30.7279 19.565 31.011 19.6087 31.2914L21.3903 42.8636C21.4571 43.2971 21.8313 43.6185 22.2704 43.6185C24.3006 43.6185 26.264 44.2487 27.912 45.3988H9.79899V43.6185C9.79899 43.1262 9.39991 42.7283 8.90817 42.7283H7.12654V10.6821H8.90817C9.39991 10.6821 9.79899 10.2842 9.79899 9.7919V8.01156H43.6501V9.7919C43.6501 10.2842 44.0491 10.6821 44.5409 10.6821H46.3225V42.7283Z" fill="url(#paint5_linear_81_176)"/>
<defs>
<linearGradient id="paint0_linear_81_176" x1="10.0271" y1="24.0348" x2="17.6072" y2="24.0348" gradientUnits="userSpaceOnUse">
<stop stop-color="#F45B25"/>
<stop offset="1" stop-color="#FF843E"/>
</linearGradient>
<linearGradient id="paint1_linear_81_176" x1="16.2654" y1="24.0348" x2="23.8455" y2="24.0348" gradientUnits="userSpaceOnUse">
<stop stop-color="#F45B25"/>
<stop offset="1" stop-color="#FF843E"/>
</linearGradient>
<linearGradient id="paint2_linear_81_176" x1="22.4998" y1="24.0348" x2="30.0799" y2="24.0348" gradientUnits="userSpaceOnUse">
<stop stop-color="#F45B25"/>
<stop offset="1" stop-color="#FF843E"/>
</linearGradient>
<linearGradient id="paint3_linear_81_176" x1="28.7342" y1="24.0369" x2="36.3142" y2="24.0369" gradientUnits="userSpaceOnUse">
<stop stop-color="#F45B25"/>
<stop offset="1" stop-color="#FF843E"/>
</linearGradient>
<linearGradient id="paint4_linear_81_176" x1="34.9686" y1="24.0348" x2="42.5486" y2="24.0348" gradientUnits="userSpaceOnUse">
<stop stop-color="#F45B25"/>
<stop offset="1" stop-color="#FF843E"/>
</linearGradient>
<linearGradient id="paint5_linear_81_176" x1="-15.5488" y1="26.7052" x2="60.2517" y2="26.7052" gradientUnits="userSpaceOnUse">
<stop stop-color="#F45B25"/>
<stop offset="1" stop-color="#FF843E"/>
</linearGradient>
</defs>
</svg>
