<svg width="279" height="51" viewBox="0 0 279 51" fill="none" xmlns="http://www.w3.org/2000/svg">
<path d="M86.701 19.0623C86.781 18.6075 86.821 18.1673 86.821 17.738C86.821 15.9479 86.1336 14.518 84.7589 13.4483C83.3841 12.3786 81.4275 11.8438 78.8889 11.8438H75.4194L74.1719 16.2753L77.2887 16.2535C78.4634 16.2535 79.3581 16.5082 79.9727 17.0139C80.5874 17.5233 80.8929 18.2437 80.8929 19.1788C80.8929 19.4989 80.8783 19.7391 80.8529 19.8992C80.6674 21.0198 80.1437 21.8966 79.289 22.5261C78.4343 23.1555 77.3505 23.4684 76.0449 23.4684H65.287L62.3848 39.8194H74.4447C77.3033 39.8194 79.6854 39.1245 81.5948 37.7346C83.5041 36.3447 84.6461 34.5146 85.0207 32.2443C85.1007 31.7895 85.1407 31.3747 85.1407 31.0036C85.1407 29.6137 84.748 28.413 83.9588 27.3979C83.1696 26.3828 82.1367 25.7424 80.8529 25.4732C82.3767 24.9929 83.6642 24.2107 84.7189 23.1301C85.7736 22.0495 86.4355 20.6923 86.701 19.0623ZM79.449 31.5675C79.2635 32.7682 78.7289 33.7069 77.8452 34.3727C76.965 35.0422 75.8412 35.3733 74.481 35.3733H68.833L70.1568 27.6781H75.6848C76.885 27.6781 77.827 27.951 78.5107 28.5004C79.1908 29.0498 79.5327 29.8029 79.5327 30.7634C79.5327 30.9235 79.5072 31.1928 79.4527 31.5639L79.449 31.5675Z" fill="white"/>
<path d="M75.4212 11.8457H61.6193L60.8301 16.2955L74.1847 16.2773L75.4212 11.8457Z" fill="#F45B25"/>
<path d="M58.4932 11.8457H53.518L52.7324 16.2773L57.6458 16.2591L58.4932 11.8457Z" fill="#F45B25"/>
<path d="M125.283 19.1814C126.647 20.4367 127.327 22.2159 127.327 24.5117C127.327 25.3667 127.261 26.1271 127.127 26.7966L124.803 39.8221H119.235L121.398 27.557C121.479 27.0768 121.519 26.6074 121.519 26.1526C121.519 24.8683 121.166 23.8895 120.457 23.2055C119.747 22.5251 118.74 22.1831 117.431 22.1831C115.881 22.1831 114.572 22.6452 113.503 23.5657C112.434 24.4862 111.768 25.8179 111.499 27.5534V27.5134L109.295 39.8184H103.727L105.891 27.5534C105.971 27.0731 106.011 26.6183 106.011 26.1926C106.011 24.8828 105.651 23.8895 104.931 23.2055C104.211 22.5251 103.196 22.1831 101.887 22.1831C100.417 22.1831 99.1553 22.6161 98.1006 23.4857C97.0459 24.3552 96.3586 25.5887 96.0385 27.1932L93.7946 39.8184H88.1465L92.0743 17.6133H97.7224L97.2423 20.2584C98.1224 19.3488 99.1771 18.6284 100.406 18.0936C101.636 17.5587 102.93 17.2931 104.294 17.2931C106.029 17.2931 107.513 17.6606 108.742 18.3955C109.971 19.1305 110.837 20.1783 111.346 21.5427C112.281 20.2584 113.503 19.2324 115.012 18.4574C116.521 17.6824 118.089 17.2967 119.718 17.2967C122.068 17.2967 123.926 17.9262 125.286 19.1814H125.283Z" fill="white"/>
<path d="M137.781 17.6172L140.745 33.1277L149.358 17.6172H155.326L135.814 50.3228H129.846L136.578 39.262L131.49 17.6172H137.778H137.781Z" fill="white"/>
<path d="M163.381 20.8662C164.261 19.7966 165.396 18.9312 166.785 18.2617L166.789 18.2578C168.178 17.5883 169.688 17.2568 171.317 17.2568C172.947 17.2569 174.434 17.6099 175.703 18.3193C176.972 19.0288 177.955 20.0514 178.649 21.3867C179.344 22.722 179.689 24.2871 179.689 26.0771C179.689 26.9065 179.609 27.7613 179.449 28.6416C179.049 30.9119 178.245 32.9238 177.045 34.6738C175.845 36.4239 174.386 37.7816 172.677 38.7422C170.968 39.7025 169.179 40.1865 167.31 40.1865C165.655 40.1865 164.251 39.8589 163.102 39.2041C161.952 38.5492 161.112 37.7016 160.577 36.6611L160.018 39.8262H154.369L159.617 10.166H165.266L163.381 20.8662ZM210.413 17.2539C212.068 17.2539 213.465 17.5891 214.6 18.2549C215.734 18.9243 216.571 19.7643 217.105 20.7793L217.665 17.6143H223.313L219.386 39.8193H213.737L214.337 36.5742C213.457 37.6146 212.315 38.4772 210.911 39.1611C209.507 39.8414 207.98 40.1836 206.325 40.1836C204.67 40.1836 203.252 39.816 201.997 39.0811C200.742 38.3461 199.768 37.3049 199.073 35.9551C198.379 34.6053 198.033 33.0371 198.033 31.2471C198.033 30.4213 198.113 29.552 198.273 28.6426C198.673 26.3978 199.466 24.4073 200.655 22.6719L200.659 22.668C201.848 20.9325 203.296 19.5933 205.005 18.6582C206.714 17.7231 208.518 17.2539 210.413 17.2539ZM273.034 39.8184H267.386L267.985 36.5332C267.105 37.6282 265.974 38.512 264.6 39.1777C263.225 39.8472 261.708 40.1787 260.054 40.1787C258.399 40.1787 256.977 39.811 255.708 39.0762C254.439 38.3412 253.449 37.301 252.743 35.9512C252.034 34.6014 251.682 33.0331 251.682 31.2432C251.682 30.4173 251.762 29.5473 251.922 28.6377C252.322 26.3928 253.118 24.4025 254.308 22.667H254.304C255.493 20.9315 256.948 19.5923 258.672 18.6572C260.396 17.7223 262.203 17.253 264.098 17.2529C265.541 17.2529 266.862 17.566 268.065 18.1953C269.269 18.8247 270.161 19.6578 270.75 20.6982L272.634 10.1582H278.282L273.034 39.8184ZM241.145 17.2969C243.439 17.2969 245.251 17.9186 246.571 19.1592C247.895 20.4035 248.557 22.1722 248.557 24.4717C248.557 25.3267 248.487 26.1019 248.356 26.7969L246.033 39.8223H240.465L242.629 27.5566C242.709 27.0765 242.749 26.607 242.749 26.1523C242.749 24.8172 242.396 23.8023 241.687 23.1074C240.977 22.4126 239.97 22.0664 238.661 22.0664C237.166 22.0664 235.89 22.5141 234.835 23.4092C233.78 24.3042 233.078 25.5928 232.732 27.2773L230.529 39.8223H224.881L228.805 17.6172H234.453L233.973 20.3418C234.882 19.4068 235.962 18.6649 237.217 18.1191C238.471 17.5734 239.781 17.2969 241.145 17.2969ZM196.917 23.1875H195.434C193.779 23.1875 192.447 23.5472 191.447 24.2676C190.447 24.988 189.72 26.2186 189.266 27.9541L187.182 39.8184H181.533L185.457 17.6133H191.105L190.426 21.543C191.386 20.2078 192.509 19.1628 193.789 18.417C195.073 17.6675 196.459 17.2969 197.957 17.2969L196.917 23.1875ZM168.993 22.1914C167.978 22.1914 166.975 22.4534 165.989 22.9736C165 23.4939 164.145 24.2503 163.425 25.2363C162.705 26.2259 162.221 27.3865 161.981 28.7217C161.876 29.4164 161.821 29.9259 161.821 30.2461C161.821 31.8214 162.283 33.0512 163.203 33.9316C164.123 34.8121 165.28 35.2568 166.669 35.2568C167.709 35.2568 168.724 34.9908 169.713 34.4561C170.702 33.9212 171.557 33.1605 172.277 32.1709C172.997 31.1813 173.481 30.0061 173.721 28.6455C173.801 28.1107 173.841 27.6305 173.841 27.2012L173.837 27.1973C173.837 25.622 173.383 24.3922 172.478 23.5117C171.568 22.6312 170.408 22.1914 168.993 22.1914ZM211.017 22.1914C209.977 22.1915 208.966 22.4456 207.991 22.9512C207.017 23.4605 206.169 24.1998 205.449 25.1748C204.729 26.1499 204.245 27.3073 204.005 28.6426C203.925 29.1518 203.885 29.6323 203.885 30.0869C203.885 31.6913 204.34 32.9536 205.249 33.874C206.158 34.7945 207.304 35.2568 208.693 35.2568C209.733 35.2568 210.748 34.9948 211.737 34.4746C212.723 33.9543 213.574 33.1969 214.279 32.2109C214.985 31.225 215.461 30.0607 215.701 28.7256C215.807 28.0308 215.861 27.5213 215.861 27.2012L215.865 27.1973C215.865 25.622 215.402 24.3921 214.482 23.5117C213.562 22.6314 212.406 22.1914 211.017 22.1914ZM264.662 22.1904C263.622 22.1904 262.61 22.4454 261.636 22.9512C260.661 23.4605 259.814 24.1988 259.09 25.1738C258.37 26.1489 257.886 27.3063 257.649 28.6416C257.569 29.1508 257.529 29.6312 257.529 30.0859C257.529 31.6902 257.984 32.9526 258.89 33.873C259.799 34.7935 260.945 35.2558 262.334 35.2559C263.374 35.2559 264.389 34.9939 265.378 34.4736C266.367 33.9534 267.215 33.1968 267.924 32.2109C268.633 31.2213 269.106 30.0599 269.346 28.7246C269.451 28.0298 269.506 27.5203 269.506 27.2002L269.51 27.1973C269.51 25.6218 269.048 24.3912 268.128 23.5107C267.208 22.6304 266.051 22.1905 264.662 22.1904Z" fill="url(#paint0_linear_81_649)"/>
<path d="M32.5805 17.8457H15.252V40.8392H32.5805V17.8457Z" fill="#EAAD8B"/>
<path d="M0.35942 10.3448L0 4.49942L4.86014 3.8147e-06L10.5632 1.54011L16.9882 7.97103L6.49503 17.6795L0.35942 10.3448Z" fill="#CE4622"/>
<path d="M13.6494 7.90661L6.78861 14.7767L2.62187 9.44036L2.37695 5.45326L5.49406 2.57032L9.36181 3.61403L13.6494 7.90661Z" fill="#1F1D35"/>
<path d="M24.4017 5.59086V18.9364L20.6389 20.2696C20.5626 20.5274 20.4672 20.521 20.3527 20.2696L19.5607 20.2315C17.7667 18.1981 15.9188 17.7049 14.0135 18.7518L13.4473 18.2554C13.301 18.8918 12.913 18.8377 12.3818 18.6213C10.1489 17.5554 5.41602 16.3939 5.41602 16.3939L14.5988 5.59404C17.7604 5.61313 21.2433 5.56858 24.4049 5.59404L24.4017 5.59086Z" fill="#F45B25"/>
<path d="M13.4482 18.256C14.3706 18.1288 16.2441 20.4103 15.6016 21.1199L15.3439 22.0109C15.3503 23.1628 13.0284 30.6565 12.4304 31.9834C12.2936 32.2857 11.9946 32.4766 11.7211 32.6453C11.4794 32.6612 11.2376 32.6644 11.0022 32.6294C9.87309 32.4607 4.90481 28.3431 3.69613 27.2199L3.0918 26.0266L5.4169 16.3945L13.4482 18.256Z" fill="#D64520"/>
<path d="M24.4016 39.7883L21.5708 39.782C20.8551 39.0056 20.0663 38.5442 19.2011 38.401L16.1794 35.0503L11.93 32.6574C10.9885 32.5619 11.4752 33.7934 11.9205 34.4616C15.5274 38.7733 24.4016 49.029 24.4016 49.029V39.7915V39.7883Z" fill="#8A231B"/>
<path d="M11.7211 32.6453L24.4026 49.0297L4.22413 33.6699L3.0918 26.0235C5.99261 28.2191 8.69622 30.682 11.7211 32.6421V32.6453Z" fill="#A32B1E"/>
<path d="M16.266 35.143L11.7207 32.645C12.36 28.7343 14.4402 25.075 14.8855 21.1324C15.3944 20.671 16.1419 20.4769 17.1311 20.5469C18.3461 20.06 20.5504 20.2987 20.6394 20.2701L16.266 35.143Z" fill="#B23420"/>
<path d="M20.6408 20.2693L14.8869 21.1317L13.4492 18.2551L16.6236 17.5137L20.6408 20.2693Z" fill="#1F1D35"/>
<path d="M24.4029 37.8791C22.8443 37.8823 21.4893 37.8696 19.9817 38.0159C19.8195 38.0987 19.1992 38.401 19.1992 38.401C19.5141 38.7287 21.184 40.2879 21.4162 40.3579H24.4029V37.8823V37.8791Z" fill="#EE8C61"/>
<path d="M24.4021 29.3067L20.7793 29.4753L19.7996 31.8809C20.4517 32.6796 24.0999 35.1775 24.1063 35.9571C24.1127 36.8195 20.7252 37.6182 19.7773 38.1114L24.4053 38.14V29.3067H24.4021Z" fill="#1F1D35"/>
<path d="M48.4491 10.3448L48.8085 4.49942L43.9452 3.8147e-06L38.2454 1.54011L31.8203 7.97103L42.3103 17.6795L48.4491 10.3448Z" fill="#CE4622"/>
<path d="M35.1562 7.90661L41.9185 14.538L46.1838 9.44036L46.4287 5.45326L43.3116 2.57032L39.4439 3.61403L35.1562 7.90661Z" fill="#1F1D35"/>
<path d="M24.4004 5.59085V18.9364L28.1632 20.2696C28.2395 20.5274 28.3349 20.521 28.4494 20.2696L29.2414 20.2315C31.0354 18.1981 32.8834 17.7049 34.7886 18.7518L35.3548 18.2554C35.5011 18.8918 35.8891 18.8377 36.4203 18.6213C38.6532 17.5554 43.4211 16.2889 43.4211 16.2889L34.2065 5.59403C31.0449 5.61312 27.562 5.56858 24.4004 5.59403V5.59085Z" fill="#FF843E"/>
<path d="M35.361 18.2554C34.4386 18.1281 32.5651 20.4096 33.2076 21.1192L33.4653 22.0102C33.4589 23.1621 35.7808 30.6558 36.3788 31.9828C36.5156 32.2851 36.8145 32.476 37.0881 32.6446C37.3298 32.6605 37.5716 32.6637 37.8069 32.6287C38.9361 32.4601 43.9044 28.3425 45.113 27.2192L45.7174 26.026L43.4273 16.2889L35.361 18.2554Z" fill="#D64520"/>
<path d="M24.4004 39.7886L27.2312 39.7822C27.9469 39.0058 28.7357 38.5444 29.6009 38.4012L32.6225 35.0505L36.872 32.6576C37.8135 32.5621 37.3268 33.7936 36.8815 34.4618C33.2746 38.7735 24.4004 49.0292 24.4004 49.0292V39.7918V39.7886Z" fill="#8A231B"/>
<path d="M37.0819 32.6453L24.4004 49.0297L44.5789 33.6699L45.7112 26.0235C42.8104 28.2191 40.1068 30.682 37.0819 32.6421V32.6453Z" fill="#A32B1E"/>
<path d="M32.5395 35.143L37.0848 32.645C36.4454 28.7343 34.3652 25.075 33.9199 21.1324C33.411 20.671 32.6636 20.4769 31.6743 20.5469C30.4593 20.06 28.2551 20.2987 28.166 20.2701L32.5395 35.143Z" fill="#B23420"/>
<path d="M28.1699 20.2693L33.9207 21.1317L35.3615 18.2551L32.184 17.5137L28.1699 20.2693Z" fill="#1F1D35"/>
<path d="M24.4004 37.8791C25.9589 37.8823 27.3139 37.8695 28.8216 38.0159C28.9838 38.0986 29.604 38.4009 29.604 38.4009C29.2892 38.7287 27.6193 40.2879 27.3871 40.3579H24.4004V37.8823V37.8791Z" fill="#EE8C61"/>
<path d="M24.4016 29.3067L28.0245 29.4753L29.0041 31.8809C28.3521 32.6796 24.7038 35.1775 24.6974 35.9571C24.6911 36.8195 28.0785 37.6182 29.0264 38.1114L24.3984 38.14V29.3067H24.4016Z" fill="#1F1D35"/>
<defs>
<linearGradient id="paint0_linear_81_649" x1="118.322" y1="25.1724" x2="294.053" y2="25.1724" gradientUnits="userSpaceOnUse">
<stop stop-color="#F45B25"/>
<stop offset="1" stop-color="#FF843E"/>
</linearGradient>
</defs>
</svg>
