<svg width="64" height="62" viewBox="0 0 64 62" fill="none" xmlns="http://www.w3.org/2000/svg">
<path d="M36.1739 38.4H27.8261C28.4939 36.7527 30.119 35.6174 32 35.6174C33.881 35.6174 35.5061 36.7527 36.1739 38.4ZM37.3203 47.8609H26.6795L26.0674 53.9826H37.9324L37.3203 47.8609ZM57.6 40.0696H6.4C5.32614 40.0696 4.45217 40.9435 4.45217 42.0174V44.2435C4.45217 45.3173 5.32614 46.1913 6.4 46.1913H57.6C58.6739 46.1913 59.5478 45.3173 59.5478 44.2435V42.0174C59.5478 40.9435 58.6739 40.0696 57.6 40.0696ZM42.0174 55.6522H21.9826C19.6809 55.6522 17.8087 57.5244 17.8087 59.8261V60.9391C17.8087 61.4 18.1826 61.7739 18.6435 61.7739H45.3565C45.8174 61.7739 46.1913 61.4 46.1913 60.9391V59.8261C46.1913 57.5244 44.3185 55.6522 42.0174 55.6522ZM46.7478 36.7304V38.4H52.8696V36.7304H46.7478ZM58.713 25.6H40.9043C39.8305 25.6 38.9565 26.474 38.9565 27.5478V28.6609C38.9565 32.1897 41.8272 35.0609 45.3565 35.0609H54.2609C57.7902 35.0609 60.6609 32.1897 60.6609 28.6609V27.5478C60.6609 26.474 59.7869 25.6 58.713 25.6ZM64 14.1913C64 18.0684 62.4339 21.5845 59.905 24.1484C59.5299 24.0163 59.1328 23.9304 58.713 23.9304H40.9043C40.4846 23.9304 40.0875 24.0163 39.7124 24.1484C37.1836 21.5845 35.6174 18.0684 35.6174 14.1913C35.6174 6.36627 41.9837 0 49.8087 0C57.6337 0 64 6.36627 64 14.1913ZM45.3565 12.8C47.0446 12.8 48.4174 11.4272 48.4174 9.73913C48.4174 8.05109 47.0446 6.67826 45.3565 6.67826C43.6685 6.67826 42.2957 8.05109 42.2957 9.73913C42.2957 11.4272 43.6685 12.8 45.3565 12.8ZM44.8337 20.3468L55.9642 9.21633C56.2903 8.89021 56.2903 8.36196 55.9642 8.03595C55.638 7.70994 55.1098 7.70983 54.7838 8.03595L43.6533 19.1664C43.3272 19.4925 43.3272 20.0208 43.6533 20.3468C43.8164 20.5098 44.0294 20.5913 44.2436 20.5913C44.4577 20.5913 44.6707 20.5098 44.8337 20.3468ZM57.3217 18.6435C57.3217 16.9554 55.9489 15.5826 54.2609 15.5826C52.5728 15.5826 51.2 16.9554 51.2 18.6435C51.2 20.3315 52.5728 21.7043 54.2609 21.7043C55.9489 21.7043 57.3217 20.3315 57.3217 18.6435ZM54.2609 17.2522C53.4934 17.2522 52.8696 17.876 52.8696 18.6435C52.8696 19.4109 53.4934 20.0348 54.2609 20.0348C55.0283 20.0348 55.6522 19.4109 55.6522 18.6435C55.6522 17.876 55.0283 17.2522 54.2609 17.2522ZM46.7478 9.73913C46.7478 8.97169 46.124 8.34783 45.3565 8.34783C44.5891 8.34783 43.9652 8.97169 43.9652 9.73913C43.9652 10.5066 44.5891 11.1304 45.3565 11.1304C46.124 11.1304 46.7478 10.5066 46.7478 9.73913ZM11.1304 36.7304V38.4H17.2522V36.7304H11.1304ZM28.3826 14.1913C28.3826 18.0684 26.8166 21.5845 24.2876 24.1484C23.9125 24.0163 23.5154 23.9304 23.0957 23.9304H5.28696C4.86723 23.9304 4.47009 24.0163 4.095 24.1484C1.56616 21.5845 0 18.0684 0 14.1913C0 6.36627 6.36627 0 14.1913 0C22.0163 0 28.3826 6.36627 28.3826 14.1913ZM18.7136 10.9277C18.3952 10.0538 17.9701 9.50651 17.1967 8.97503C16.6243 8.58257 15.9213 8.33959 15.1038 8.24498V6.78478C15.1038 6.32387 14.7299 5.95 14.269 5.95C13.8081 5.95 13.4342 6.32387 13.4342 6.78478V8.25077C11.2973 8.49709 10.0294 9.6709 10.001 11.5021C9.95918 14.1918 12.7054 14.732 13.7391 14.9353L14.3282 15.0559C15.832 15.3494 16.756 15.744 16.7125 16.8032C16.6559 18.1923 15.2489 18.4842 14.0782 18.4842C13.2538 18.4842 12.5983 18.3211 12.1304 17.9999C11.6451 17.6662 11.4364 17.3983 11.2375 16.8526C11.0799 16.42 10.6005 16.1971 10.1674 16.3542C9.73423 16.5118 9.51096 16.9912 9.66901 17.4243C9.98689 18.2977 10.412 18.8449 11.1853 19.3764C11.7927 19.7933 12.5516 20.0352 13.4342 20.116V21.5976C13.4342 22.0585 13.8081 22.4324 14.269 22.4324C14.7299 22.4324 15.1038 22.0585 15.1038 21.5976V20.0779C17.1021 19.7904 18.3089 18.6403 18.3809 16.871C18.4907 14.1672 15.6988 13.6221 14.6478 13.4172L14.0613 13.2971C12.5727 13.0041 11.6537 12.6063 11.6706 11.528C11.6917 10.1557 13.1147 9.86769 14.3043 9.86769C15.1287 9.86769 15.7842 10.0307 16.2521 10.3514C16.7374 10.6851 16.9461 10.953 17.145 11.4992C17.3026 11.9324 17.7835 12.1547 18.2151 11.9976C18.6483 11.84 18.8717 11.3608 18.7136 10.9277ZM23.0957 25.6H5.28696C4.21309 25.6 3.33913 26.474 3.33913 27.5478V28.6609C3.33913 32.1897 6.20978 35.0609 9.73913 35.0609H18.6435C22.1728 35.0609 25.0435 32.1897 25.0435 28.6609V27.5478C25.0435 26.474 24.1695 25.6 23.0957 25.6Z" fill="url(#paint0_linear_1_500)"/>
<defs>
<linearGradient id="paint0_linear_1_500" x1="-18.6182" y1="30.887" x2="72.1455" y2="30.887" gradientUnits="userSpaceOnUse">
<stop stop-color="#F45B25"/>
<stop offset="1" stop-color="#FF843E"/>
</linearGradient>
</defs>
</svg>
