<svg width="64" height="72" viewBox="0 0 64 72" fill="none" xmlns="http://www.w3.org/2000/svg">
<path d="M16.5258 19.2204C16.4635 19.47 16.5009 19.7196 16.6257 19.9443L19.9581 25.698C20.2077 26.1348 20.7818 26.297 21.2311 26.0349L24.0892 24.3874C25.0502 25.1612 26.0987 25.7604 27.2219 26.1972V29.4796C27.2219 30.0038 27.6463 30.4157 28.1579 30.4157H30.5559V32.3861C30.5559 32.9028 30.9752 33.3221 31.492 33.3221C32.0088 33.3221 32.428 32.9028 32.428 32.3861V30.4157H34.8227C35.3469 30.4157 35.7588 30.0038 35.7588 29.4796V26.1972C36.8945 25.7604 37.9304 25.1612 38.8915 24.3874L41.7495 26.0349C42.1988 26.297 42.773 26.1473 43.0351 25.698L46.3675 19.9443C46.4922 19.7196 46.5172 19.47 46.4548 19.2204C46.3924 18.9833 46.2302 18.7836 46.018 18.6588L43.1724 17.0113C43.3542 15.8099 43.3527 14.606 43.1724 13.4044L46.018 11.7569C46.4572 11.5301 46.6224 10.9075 46.3674 10.4839L43.0351 4.73018C42.773 4.28088 42.1988 4.11863 41.7495 4.38076L38.8915 6.02823C37.9304 5.26684 36.8945 4.6553 35.7588 4.21851V0.936059C35.7588 0.424384 35.3469 0 34.8227 0H28.1579C27.6463 0 27.2219 0.424384 27.2219 0.936059V4.21851C26.0987 4.65531 25.0502 5.26685 24.0892 6.02823L21.2311 4.38076C20.7818 4.13113 20.2077 4.28088 19.9581 4.73018L16.6257 10.4839C16.5009 10.696 16.4635 10.9582 16.5258 11.1952C16.5883 11.4324 16.7506 11.6446 16.9627 11.7569L19.8208 13.4044C19.7209 14.0034 19.671 14.615 19.671 15.2141C19.671 15.8131 19.7209 16.4123 19.8208 17.0113L16.9627 18.6588C16.7506 18.7836 16.5883 18.9833 16.5258 19.2204ZM39.5529 15.2141C39.5529 19.6447 35.9335 23.2517 31.4904 23.2517C20.8025 22.8447 20.8183 7.56626 31.4905 7.16395C35.9335 7.16395 39.5529 10.7709 39.5529 15.2141Z" fill="url(#paint0_linear_1_478)"/>
<path d="M31.4918 21.3797C39.6802 21.1297 39.6669 9.29005 31.4917 9.03613C23.3148 9.29124 23.3053 21.1309 31.4918 21.3797ZM27.448 14.8896C28.4675 14.0707 29.195 15.59 29.7944 16.1752C29.7944 16.1752 34.3124 12.2187 34.3124 12.2187C35.23 11.3948 36.4583 12.8241 35.5481 13.6166C35.5481 13.6166 30.3187 18.2096 30.3187 18.2096C29.9406 18.5545 29.3195 18.5087 28.9832 18.1097L27.3482 16.2001C27.0112 15.8132 27.0611 15.2141 27.448 14.8896Z" fill="url(#paint1_linear_1_478)"/>
<path d="M45.7557 45.6172V38.9774C45.7557 37.8292 44.8197 36.8932 43.6714 36.8932H32.4279V35.7927C32.4231 34.5727 30.5613 34.5655 30.5557 35.7927C30.5557 35.7927 30.5557 36.8932 30.5557 36.8932H19.309C18.1607 36.8932 17.2246 37.8293 17.2246 38.9775V45.6173C17.2246 46.7655 18.1607 47.7015 19.309 47.7015H30.5557V48.8055C30.5557 49.3222 30.975 49.7415 31.4918 49.7415C32.0086 49.7415 32.4279 49.3222 32.4279 48.8055V47.7015H43.6714C44.8197 47.7015 45.7557 46.7654 45.7557 45.6172ZM22.5289 41.3613H40.4639C41.6881 41.3865 41.6972 43.2142 40.4638 43.2334H22.5289C21.3093 43.2369 21.2977 41.3671 22.5289 41.3613Z" fill="url(#paint2_linear_1_478)"/>
<path d="M26.4468 60.3202H14.1815V59.2271C14.1815 58.7103 13.7622 58.291 13.2454 58.291C12.7287 58.291 12.3094 58.7103 12.3094 59.2271V60.3202H2.08434C0.936059 60.3202 0 61.2563 0 62.417V69.0568C0 70.205 0.936059 71.1411 2.08434 71.1411H26.4468C27.595 71.1411 28.531 70.205 28.531 69.0568V62.417C28.531 61.2563 27.595 60.3202 26.4468 60.3202ZM23.2267 66.673H5.30432C4.08259 66.6681 4.07514 64.7984 5.30438 64.8008H23.2267C24.4464 64.7973 24.458 66.6671 23.2267 66.673Z" fill="url(#paint3_linear_1_478)"/>
<path d="M61.9174 60.3192H50.6722V59.2261C50.6722 58.7093 50.2529 58.29 49.7362 58.29C49.2194 58.29 48.8001 58.7093 48.8001 59.2261V60.3192H37.555C36.4068 60.3192 35.4707 61.2553 35.4707 62.4161V69.0558C35.4707 70.2041 36.4068 71.1401 37.555 71.1401H61.9174C63.0657 71.1401 64.0018 70.2041 64.0018 69.0558V62.4161C64.0018 61.2553 63.0657 60.3192 61.9174 60.3192ZM58.6974 66.672H40.775C39.5533 66.6672 39.5458 64.7974 40.7751 64.7999C40.775 64.7999 58.6974 64.7999 58.6974 64.7999C59.9171 64.7964 59.9287 66.6661 58.6974 66.672Z" fill="url(#paint4_linear_1_478)"/>
<path d="M20.3983 52.6006C19.1756 52.6059 19.1734 54.4672 20.3984 54.4727H24.7307C25.2474 54.4727 25.6667 54.0534 25.6667 53.5366C25.6667 53.0199 25.2474 52.6006 24.7307 52.6006H20.3983Z" fill="url(#paint5_linear_1_478)"/>
<path d="M13.2468 56.5073C13.7636 56.5073 14.1829 56.088 14.1829 55.5712C14.2136 55.2447 14.0256 54.4681 14.5638 54.4725C14.5638 54.4725 15.2871 54.4725 15.2871 54.4725C15.8039 54.4725 16.2232 54.0532 16.2232 53.5364C16.2232 53.0196 15.8039 52.6003 15.2871 52.6003H14.5638C13.3212 52.6003 12.3108 53.6095 12.3108 54.8497V55.5712C12.3108 56.088 12.73 56.5073 13.2468 56.5073Z" fill="url(#paint6_linear_1_478)"/>
<path d="M33.5318 52.6004H32.4276V51.5017C32.4221 50.2784 30.5609 50.2771 30.5554 51.5017V52.6004H29.4512C28.2285 52.6054 28.2263 54.4673 29.4512 54.4725C30.468 54.4718 32.5153 54.4731 33.5318 54.4725C34.7547 54.4668 34.7567 52.6061 33.5318 52.6004Z" fill="url(#paint7_linear_1_478)"/>
<path d="M38.2536 52.6003C37.0309 52.6057 37.0286 54.467 38.2536 54.4725H42.5859C43.1027 54.4725 43.5219 54.0532 43.5219 53.5364C43.5219 53.0196 43.1027 52.6003 42.5859 52.6003H38.2536Z" fill="url(#paint8_linear_1_478)"/>
<path d="M47.6972 54.4725C48.0218 54.5031 48.8051 54.3164 48.8014 54.8497C48.8014 54.8497 48.8014 55.5712 48.8014 55.5712C48.8014 56.088 49.2207 56.5073 49.7375 56.5073C50.2543 56.5073 50.6735 56.088 50.6735 55.5712V54.8497C50.6735 53.6095 49.6631 52.6003 48.4205 52.6003H47.6972C46.4737 52.6063 46.4727 54.4667 47.6972 54.4725Z" fill="url(#paint9_linear_1_478)"/>
<defs>
<linearGradient id="paint0_linear_1_478" x1="7.77136" y1="16.6611" x2="50.305" y2="16.6611" gradientUnits="userSpaceOnUse">
<stop stop-color="#F45B25"/>
<stop offset="1" stop-color="#FF843E"/>
</linearGradient>
<linearGradient id="paint1_linear_1_478" x1="21.7852" y1="15.2079" x2="39.1901" y2="15.2079" gradientUnits="userSpaceOnUse">
<stop stop-color="#F45B25"/>
<stop offset="1" stop-color="#FF843E"/>
</linearGradient>
<linearGradient id="paint2_linear_1_478" x1="8.92465" y1="42.3083" x2="49.387" y2="42.3083" gradientUnits="userSpaceOnUse">
<stop stop-color="#F45B25"/>
<stop offset="1" stop-color="#FF843E"/>
</linearGradient>
<linearGradient id="paint3_linear_1_478" x1="-8.29994" y1="64.7161" x2="32.1623" y2="64.7161" gradientUnits="userSpaceOnUse">
<stop stop-color="#F45B25"/>
<stop offset="1" stop-color="#FF843E"/>
</linearGradient>
<linearGradient id="paint4_linear_1_478" x1="27.1708" y1="64.7151" x2="67.633" y2="64.7151" gradientUnits="userSpaceOnUse">
<stop stop-color="#F45B25"/>
<stop offset="1" stop-color="#FF843E"/>
</linearGradient>
<linearGradient id="paint5_linear_1_478" x1="17.6808" y1="53.5366" x2="26.4541" y2="53.5366" gradientUnits="userSpaceOnUse">
<stop stop-color="#F45B25"/>
<stop offset="1" stop-color="#FF843E"/>
</linearGradient>
<linearGradient id="paint6_linear_1_478" x1="11.1726" y1="54.5538" x2="16.7211" y2="54.5538" gradientUnits="userSpaceOnUse">
<stop stop-color="#F45B25"/>
<stop offset="1" stop-color="#FF843E"/>
</linearGradient>
<linearGradient id="paint7_linear_1_478" x1="26.8122" y1="52.5282" x2="35.2027" y2="52.5282" gradientUnits="userSpaceOnUse">
<stop stop-color="#F45B25"/>
<stop offset="1" stop-color="#FF843E"/>
</linearGradient>
<linearGradient id="paint8_linear_1_478" x1="35.5361" y1="53.5364" x2="44.3093" y2="53.5364" gradientUnits="userSpaceOnUse">
<stop stop-color="#F45B25"/>
<stop offset="1" stop-color="#FF843E"/>
</linearGradient>
<linearGradient id="paint9_linear_1_478" x1="45.6463" y1="54.5538" x2="51.1692" y2="54.5538" gradientUnits="userSpaceOnUse">
<stop stop-color="#F45B25"/>
<stop offset="1" stop-color="#FF843E"/>
</linearGradient>
</defs>
</svg>
