<svg width="66" height="57" viewBox="0 0 66 57" fill="none" xmlns="http://www.w3.org/2000/svg">
<path fill-rule="evenodd" clip-rule="evenodd" d="M31.4536 23.876C31.4536 23.4657 31.6166 23.0723 31.9067 22.7822C32.1968 22.4921 32.5903 22.3291 33.0005 22.3291C35.8373 22.3325 38.5568 23.461 40.5626 25.4669C42.5685 27.4729 43.6967 30.1925 43.6999 33.0293C43.6999 33.4395 43.5369 33.833 43.2468 34.1231C42.9567 34.4132 42.5633 34.5762 42.153 34.5762C41.7428 34.5762 41.3493 34.4132 41.0592 34.1231C40.7691 33.833 40.6061 33.4395 40.6061 33.0293C40.6039 31.0128 39.8019 29.0795 38.3761 27.6535C36.9502 26.2276 35.017 25.4254 33.0005 25.4229C32.5903 25.4229 32.1968 25.2599 31.9067 24.9698C31.6166 24.6797 31.4536 24.2863 31.4536 23.876ZM28.6936 48.8751V51.6801C28.6947 51.7165 28.7096 51.7511 28.7352 51.777C28.7609 51.8028 28.7954 51.818 28.8318 51.8193H37.1693C37.2057 51.818 37.2402 51.8028 37.2658 51.777C37.2915 51.7511 37.3064 51.7165 37.3075 51.6801V48.8751H28.6936ZM33.0005 34.0168C33.1961 34.0168 33.3872 33.9587 33.5498 33.85C33.7123 33.7413 33.839 33.5868 33.9138 33.4061C33.9885 33.2254 34.008 33.0266 33.9698 32.8348C33.9315 32.643 33.8373 32.4669 33.699 32.3287C33.5606 32.1904 33.3844 32.0964 33.1926 32.0583C33.0008 32.0202 32.802 32.0399 32.6213 32.1148C32.4407 32.1898 32.2863 32.3166 32.1778 32.4792C32.0692 32.6419 32.0113 32.8331 32.0114 33.0286C32.0118 33.2908 32.1162 33.542 32.3016 33.7273C32.4871 33.9125 32.7384 34.0167 33.0005 34.0168ZM35.9888 55.8257V54.913H30.0123V55.8257C30.0144 55.9912 30.081 56.1493 30.1981 56.2663C30.3151 56.3833 30.4732 56.45 30.6387 56.452H35.3626C35.5281 56.4499 35.6862 56.3833 35.8031 56.2662C35.9201 56.1492 35.9867 55.9911 35.9888 55.8257ZM28.2011 45.781H31.4536V36.8051C30.5781 36.4467 29.8543 35.7954 29.4058 34.9624C28.9573 34.1295 28.8119 33.1667 28.9946 32.2385C29.1772 31.3102 29.6765 30.4743 30.4072 29.8734C31.1379 29.2725 32.0545 28.944 33.0005 28.944C33.9465 28.944 34.8632 29.2725 35.5939 29.8734C36.3245 30.4743 36.8238 31.3102 37.0065 32.2385C37.1891 33.1667 37.0438 34.1295 36.5953 34.9624C36.1468 35.7954 35.4229 36.4467 34.5474 36.8051V45.781H37.7999C38.2463 44.7758 38.9704 43.9189 39.8871 43.311C42.092 41.8342 43.7638 39.6878 44.6557 37.1884C45.5477 34.6891 45.6126 31.9692 44.8409 29.4301C44.0692 26.8911 42.5017 24.6673 40.3697 23.0871C38.2378 21.5068 35.6543 20.6537 33.0005 20.6537C30.3468 20.6537 27.7633 21.5068 25.6314 23.0871C23.4994 24.6673 21.9319 26.8911 21.1602 29.4301C20.3884 31.9692 20.4533 34.6891 21.3453 37.1884C22.2373 39.6878 23.9091 41.8342 26.114 43.311C27.0306 43.9189 27.7547 44.7758 28.2011 45.781ZM66.0011 27.9032C66.001 27.54 65.8731 27.1883 65.6397 26.9099C65.4064 26.6315 65.0825 26.4441 64.7249 26.3806L58.157 25.2106C57.6769 23.6602 57.0539 22.1577 56.2959 20.7225L60.1145 15.2499C60.3224 14.9519 60.4189 14.5903 60.3869 14.2284C60.3549 13.8665 60.1966 13.5273 59.9397 13.2705L52.7307 6.06178C52.4739 5.80496 52.1349 5.64668 51.7732 5.61467C51.4114 5.58266 51.0499 5.67897 50.752 5.88673L45.279 9.70538C43.8437 8.94721 42.3411 8.32388 40.7906 7.84343L39.621 1.27619C39.5574 0.918502 39.37 0.594599 39.0915 0.361257C38.8131 0.127916 38.4614 2.48618e-05 38.0981 0H27.903C27.5397 2.48618e-05 27.188 0.127916 26.9095 0.361257C26.6311 0.594599 26.4436 0.918502 26.3801 1.27619L25.2106 7.84291C23.6596 8.32301 22.1567 8.9463 20.7211 9.70473L15.2491 5.8866C14.9512 5.67878 14.5896 5.58243 14.2278 5.61443C13.8659 5.64644 13.5269 5.80476 13.2701 6.06166L6.06101 13.2705C5.80417 13.5274 5.64592 13.8665 5.61396 14.2284C5.582 14.5903 5.67838 14.9519 5.88621 15.2499L9.70499 20.723C8.94698 22.1583 8.32387 23.6608 7.84368 25.2112L1.27619 26.3806C0.918545 26.4441 0.594676 26.6315 0.36134 26.9099C0.128004 27.1883 8.54025e-05 27.54 0 27.9032L0 33.0013C0 33.4116 0.162976 33.805 0.453076 34.0951C0.743176 34.3852 1.13664 34.5482 1.5469 34.5482H14.4648C14.8751 34.5482 15.2685 34.3852 15.5586 34.0951C15.8487 33.805 16.0117 33.4116 16.0117 33.0013C16.0117 23.6339 23.6329 16.0123 33.0005 16.0123C42.3682 16.0123 49.9891 23.6339 49.9891 33.0013C49.9891 33.4116 50.1521 33.805 50.4422 34.0951C50.7323 34.3852 51.1257 34.5482 51.536 34.5482H64.4542C64.8644 34.5482 65.2579 34.3852 65.548 34.0951C65.8381 33.805 66.0011 33.4116 66.0011 33.0013V27.9032Z" fill="url(#paint0_linear_1_457)"/>
<defs>
<linearGradient id="paint0_linear_1_457" x1="-19.2003" y1="28.226" x2="74.4012" y2="28.226" gradientUnits="userSpaceOnUse">
<stop stop-color="#F45B25"/>
<stop offset="1" stop-color="#FF843E"/>
</linearGradient>
</defs>
</svg>
